<?xml version="1.0" standalone="no"?>
<!DOCTYPE svg PUBLIC "-//W3C//DTD SVG 20010904//EN"
 "http://www.w3.org/TR/2001/REC-SVG-20010904/DTD/svg10.dtd">
<svg version="1.0" xmlns="http://www.w3.org/2000/svg"
 width="872.000000pt" height="787.000000pt" viewBox="0 0 872.000000 787.000000"
 preserveAspectRatio="xMidYMid meet">

<g transform="translate(0.000000,787.000000) scale(0.100000,-0.100000)"
fill="#000000" stroke="none">
<path d="M0 3935 l0 -3935 4360 0 4360 0 0 3935 0 3935 -4360 0 -4360 0 0
-3935z m1898 3172 c3 -48 6 -57 22 -57 16 0 19 9 22 58 2 43 7 57 18 57 21 0
21 -122 0 -135 -27 -17 -68 -11 -84 12 -16 22 -22 109 -9 122 17 16 28 -5 31
-57z m4597 43 c18 -15 19 -52 3 -68 -7 -7 -25 -12 -41 -12 -15 0 -26 -4 -23
-9 9 -14 -4 -41 -20 -41 -11 0 -14 18 -14 76 l0 77 40 -6 c23 -3 47 -11 55
-17z m240 10 c3 -6 -1 -13 -10 -16 -19 -8 -30 0 -20 15 8 14 22 14 30 1z m-65
-15 c0 -8 5 -15 10 -15 6 0 10 -7 10 -15 0 -8 -4 -15 -10 -15 -5 0 -10 -11
-10 -25 0 -14 5 -25 10 -25 6 0 10 -7 10 -16 0 -10 -7 -14 -22 -12 -18 2 -24
11 -26 38 -2 19 -9 41 -15 49 -9 11 -9 15 1 18 6 3 12 11 12 19 0 8 7 14 15
14 8 0 15 -7 15 -15z m340 0 c0 -8 5 -15 10 -15 6 0 10 -7 10 -15 0 -8 -4 -15
-10 -15 -5 0 -10 -11 -10 -25 0 -14 5 -25 10 -25 6 0 10 -7 10 -16 0 -10 -7
-14 -22 -12 -18 2 -24 11 -26 38 -2 19 -9 41 -15 49 -9 11 -9 15 1 18 6 3 12
11 12 19 0 8 7 14 15 14 8 0 15 -7 15 -15z m-4940 -30 c17 -21 4 -32 -19 -18
-11 7 -22 9 -25 6 -4 -4 8 -13 25 -20 23 -10 30 -18 27 -35 -4 -29 -58 -38
-78 -13 -17 21 -4 32 20 17 23 -14 30 -15 30 -3 0 5 -11 12 -25 15 -31 8 -42
31 -25 51 16 19 54 19 70 0z m108 3 c7 -7 12 -22 12 -35 0 -19 -5 -23 -32 -23
-17 0 -28 -3 -24 -7 4 -5 16 -8 27 -8 29 0 23 -20 -7 -23 -31 -4 -64 23 -64
51 0 44 59 74 88 45z m92 -3 c0 -8 -7 -15 -15 -15 -11 0 -15 -11 -15 -40 0
-29 -4 -40 -15 -40 -12 0 -15 13 -15 55 0 54 0 55 30 55 20 0 30 -5 30 -15z
m4340 -4 c5 -11 10 -36 10 -55 0 -36 0 -36 -44 -36 -37 0 -46 4 -52 22 -4 15
-1 25 12 35 16 12 16 13 1 13 -15 0 -16 4 -7 20 14 27 65 27 80 1z m130 -36
c0 -48 -2 -55 -20 -55 -18 0 -20 7 -20 55 0 48 2 55 20 55 18 0 20 -7 20 -55z
m100 36 c19 -36 12 -51 -22 -52 l-33 -1 29 -7 c41 -8 38 -25 -4 -29 -38 -4
-60 16 -60 54 0 48 68 75 90 35z m108 7 c6 -6 12 -30 12 -54 0 -37 -3 -44 -20
-44 -17 0 -20 7 -20 41 0 52 -24 48 -28 -4 -2 -24 -8 -37 -18 -37 -10 0 -14
14 -14 54 l0 54 38 0 c20 0 43 -5 50 -10z m-5798 -225 c18 -57 26 -59 42 -11
11 31 21 44 36 46 21 3 22 0 22 -72 0 -61 -3 -76 -15 -76 -15 0 -18 12 -16 60
0 24 0 24 -14 -5 -8 -16 -14 -36 -15 -43 0 -26 -33 -6 -46 28 l-12 35 -1 -37
c-1 -29 -5 -38 -18 -38 -16 0 -18 9 -15 75 3 65 6 75 22 75 13 0 22 -12 30
-37z m5308 -11 c16 -48 24 -46 42 11 9 30 16 38 33 35 20 -3 22 -9 23 -75 2
-65 0 -73 -17 -73 -15 0 -19 8 -20 38 l-1 37 -12 -35 c-18 -50 -38 -49 -58 2
l-16 43 2 -42 c3 -36 0 -43 -15 -43 -17 0 -19 8 -19 76 0 72 1 75 22 72 15 -2
25 -15 36 -46z m-4208 18 c18 -16 21 -23 12 -32 -15 -15 -16 -55 -2 -63 18
-11 10 -26 -12 -23 -18 2 -24 11 -26 38 -2 19 -9 41 -15 49 -9 11 -9 15 1 18
6 3 12 11 12 19 0 18 3 18 30 -6z m5312 -6 c8 -17 9 -28 1 -32 -11 -7 -10 -24
2 -62 6 -18 4 -21 -16 -18 -20 2 -25 11 -31 52 -10 75 19 115 44 60z m-6212
-23 c5 -11 10 -36 10 -56 l0 -36 -42 3 c-37 3 -44 7 -46 27 -2 13 2 28 10 32
10 7 10 9 1 9 -7 0 -13 6 -13 14 0 30 64 35 80 7z m114 3 c3 -9 6 -33 6 -55 0
-28 -4 -39 -15 -39 -11 0 -15 11 -15 40 0 29 -4 40 -15 40 -11 0 -15 -11 -15
-40 0 -28 -4 -40 -14 -40 -17 0 -22 21 -18 72 4 37 5 38 42 38 25 0 40 -5 44
-16z m104 4 c7 -7 12 -32 12 -56 l0 -43 -42 3 c-37 3 -44 7 -46 27 -2 13 2 28
10 32 10 7 10 9 1 9 -7 0 -13 6 -13 14 0 25 57 35 78 14z m122 -52 c0 -43 -5
-67 -14 -75 -19 -16 -68 -10 -74 8 -3 10 2 12 21 7 14 -3 28 -2 32 3 3 5 -7
11 -22 13 -35 4 -52 45 -35 83 10 21 18 25 52 25 l40 0 0 -64z m98 52 c7 -7
12 -22 12 -35 0 -19 -5 -23 -31 -23 -18 0 -28 -4 -24 -10 3 -6 18 -7 32 -4 19
5 24 3 21 -7 -6 -18 -55 -24 -72 -9 -21 16 -25 57 -9 80 16 22 53 26 71 8z
m182 -23 c8 -41 0 -75 -16 -75 -10 0 -14 13 -14 41 0 52 -24 48 -28 -4 -5 -53
-32 -50 -32 3 0 29 -4 40 -15 40 -11 0 -15 -11 -15 -40 0 -29 -4 -40 -15 -40
-11 0 -15 13 -15 54 l0 54 72 -2 c73 -1 73 -1 78 -31z m105 19 c25 -25 14 -48
-25 -55 -34 -6 -24 -13 14 -9 11 1 17 -3 14 -12 -6 -17 -55 -23 -74 -7 -17 14
-19 70 -2 87 17 17 54 15 73 -4z m113 -41 c2 -43 0 -53 -12 -53 -12 0 -16 11
-16 40 0 29 -4 40 -15 40 -11 0 -15 -11 -15 -40 0 -29 -4 -40 -15 -40 -11 0
-15 13 -15 54 l0 55 43 -2 42 -2 3 -52z m4466 45 c3 -7 7 -32 9 -55 l5 -43
-44 0 c-49 0 -66 19 -46 51 9 13 8 19 -1 22 -9 3 -9 8 2 20 16 20 70 23 75 5z
m114 0 c6 -6 12 -30 12 -54 0 -37 -3 -44 -20 -44 -17 0 -20 7 -20 41 0 52 -24
48 -28 -4 -2 -24 -8 -37 -18 -37 -10 0 -14 14 -14 54 l0 54 38 0 c20 0 43 -5
50 -10z m98 4 c6 -4 13 -29 16 -55 l6 -48 -47 3 c-39 3 -46 6 -49 26 -3 17 4
26 30 37 l33 16 -32 -6 c-34 -7 -42 2 -21 23 13 13 47 16 64 4z m134 -50 c0
-73 -14 -95 -60 -90 -42 4 -45 21 -4 29 19 5 22 7 9 8 -30 2 -45 20 -45 56 0
41 16 55 62 55 l38 0 0 -58z m98 46 c7 -7 12 -22 12 -35 0 -19 -6 -23 -32 -24
-20 -1 -25 -3 -13 -6 46 -10 51 -13 35 -23 -21 -14 -64 -12 -78 2 -17 17 -15
64 4 82 18 19 55 21 72 4z m170 -1 c6 -5 12 -29 12 -53 0 -37 -3 -44 -20 -44
-17 0 -20 7 -20 40 0 22 -4 40 -10 40 -5 0 -10 -18 -10 -40 0 -33 -3 -40 -20
-40 -17 0 -20 7 -20 41 0 52 -24 48 -28 -4 -2 -24 -8 -37 -18 -37 -10 0 -14
14 -14 54 l0 54 68 -1 c37 0 73 -4 80 -10z m111 -1 c6 -7 10 -31 9 -52 -3 -36
-6 -39 -34 -42 -37 -4 -64 19 -64 53 0 46 61 74 89 41z m119 -43 c2 -43 0 -53
-12 -53 -16 0 -18 5 -20 49 -2 44 -26 36 -26 -8 0 -34 -3 -41 -20 -41 -18 0
-20 7 -20 54 l0 55 48 -2 47 -2 3 -52z m-4015 -123 c98 -14 287 -82 287 -102
0 -5 6 -8 14 -8 42 0 225 -178 282 -276 74 -126 108 -232 120 -376 l6 -74 -98
-17 c-257 -46 -507 -176 -700 -364 -60 -58 -182 -220 -214 -283 -12 -25 -26
-47 -29 -50 -4 -3 -12 -17 -18 -32 -12 -27 -36 -37 -47 -19 -3 5 -18 12 -33
16 -39 9 -153 66 -153 76 0 4 -8 10 -19 14 -22 7 -159 138 -181 174 -8 13 -22
33 -32 45 -26 35 -75 136 -97 201 -49 148 -50 361 -1 505 18 54 21 65 19 65
-7 0 51 101 93 162 45 66 148 173 166 173 4 0 18 10 32 23 28 26 143 86 211
111 107 40 264 54 392 36z m2017 -14 c114 -29 210 -74 295 -139 307 -233 417
-640 268 -993 -70 -166 -199 -310 -358 -398 -47 -26 -142 -66 -157 -66 -4 0
-26 36 -49 80 -182 341 -529 595 -920 672 l-112 22 7 80 c28 338 231 600 557
720 122 46 338 56 469 22z m-4092 -128 c7 -7 12 -26 12 -43 0 -36 -15 -55 -45
-55 -30 0 -45 19 -45 55 0 36 15 55 45 55 12 0 26 -5 33 -12z m5033 -29 l15
-42 14 42 c20 61 40 54 40 -14 0 -55 -19 -80 -21 -27 l-1 27 -10 -27 c-5 -16
-15 -28 -22 -28 -7 0 -17 12 -23 28 l-11 27 -1 -27 c-2 -53 -21 -28 -21 27 0
67 19 74 41 14z m849 31 c0 -5 -4 -10 -10 -10 -5 0 -10 5 -10 10 0 6 5 10 10
10 6 0 10 -4 10 -10z m-44 -15 c9 -8 11 -15 5 -15 -15 0 -14 -43 2 -59 10 -10
8 -12 -8 -9 -14 2 -22 14 -25 38 -6 34 -3 60 7 60 2 0 11 -7 19 -15z m250 0
c9 -8 11 -15 5 -15 -15 0 -14 -43 2 -59 10 -10 8 -12 -8 -9 -14 2 -22 14 -25
38 -6 34 -3 60 7 60 2 0 11 -7 19 -15z m-5799 -47 c-2 -26 -7 -34 -26 -36 -13
-2 -28 1 -34 7 -15 15 0 26 17 12 10 -8 16 -9 21 -1 3 5 -1 10 -9 10 -8 0 -21
9 -29 20 -17 24 -27 16 -27 -22 0 -31 -26 -40 -32 -10 -2 14 -9 16 -33 11
l-30 -7 28 -1 c37 -1 35 -21 -2 -21 -33 0 -47 25 -36 60 8 27 64 29 66 3 1
-17 2 -17 6 0 3 13 13 17 38 15 19 -1 37 1 41 5 16 16 42 -14 41 -45z m83 12
c0 -15 -7 -20 -27 -21 l-28 -2 28 -4 c38 -6 34 -25 -5 -21 -28 3 -33 7 -36 33
-5 36 21 59 49 44 11 -5 19 -19 19 -29z m80 0 c0 -15 -7 -20 -27 -21 l-28 -2
28 -4 c38 -6 34 -25 -5 -21 -28 3 -33 7 -36 33 -5 36 21 59 49 44 11 -5 19
-19 19 -29z m80 10 c0 -13 -13 -13 -27 1 -7 7 -13 7 -17 1 -3 -5 6 -13 20 -16
36 -9 28 -41 -10 -41 -16 0 -31 6 -34 13 -3 9 4 11 25 7 24 -5 25 -4 7 4 -32
14 -40 32 -19 47 19 14 55 3 55 -16z m264 14 c25 -24 19 -44 -11 -45 l-28 -2
28 -4 c15 -2 25 -9 22 -14 -9 -13 -49 -11 -63 3 -10 10 -15 10 -21 0 -10 -17
-53 -12 -59 7 -3 9 2 11 19 7 l24 -6 -23 12 c-30 15 -24 42 11 46 20 3 27 -1
27 -14 0 -13 -3 -14 -14 -5 -8 7 -16 8 -19 4 -3 -5 6 -13 19 -20 19 -9 24 -8
24 2 0 8 10 21 22 29 27 19 23 19 42 0z m58 -12 c-7 -2 -12 -17 -12 -33 0 -16
-4 -29 -10 -29 -5 0 -10 18 -10 39 0 30 4 40 18 43 19 4 32 -14 14 -20z m4328
-7 c0 -13 3 -30 6 -39 5 -13 -1 -16 -29 -16 -33 0 -58 22 -38 35 5 3 7 14 4
24 -3 13 1 20 14 23 29 7 43 -2 43 -27z m90 -21 c0 -43 -18 -44 -22 -1 -2 17
-7 32 -13 32 -5 0 -11 -15 -13 -32 -5 -46 -22 -41 -22 6 0 33 4 40 23 43 32 6
47 -10 47 -48z m80 0 c0 -34 -1 -35 -32 -32 -30 3 -33 6 -33 36 -1 38 20 55
47 41 12 -7 18 -21 18 -45z m90 35 c0 -5 11 -2 24 6 22 14 25 14 40 0 25 -25
20 -45 -11 -46 l-28 -2 28 -4 c15 -2 25 -9 22 -14 -9 -13 -52 -11 -61 2 -4 8
-12 2 -21 -15 -9 -17 -22 -26 -38 -26 -31 0 -33 20 -2 21 20 1 20 2 2 6 -58
15 -39 97 19 86 14 -3 26 -9 26 -14z m275 -10 c8 -25 -12 -59 -35 -59 -11 0
-20 -7 -20 -15 0 -8 -4 -15 -10 -15 -5 0 -10 24 -10 54 0 49 2 55 23 58 31 5
45 -1 52 -23z m76 7 c0 -6 2 -23 4 -38 3 -26 1 -28 -30 -28 -31 0 -55 23 -36
35 5 3 7 14 4 24 -3 13 1 20 14 23 24 6 43 -1 44 -16z m249 -27 c0 -21 -4 -39
-10 -39 -5 0 -10 14 -10 30 0 17 -4 30 -10 30 -5 0 -10 -13 -10 -30 0 -20 -5
-30 -15 -30 -11 0 -15 11 -15 39 0 33 4 40 23 43 38 6 47 -2 47 -43z m-5994
19 l7 -23 8 23 c7 19 29 32 29 17 0 -15 -30 -75 -37 -75 -8 0 -33 56 -33 73 0
17 19 5 26 -15z m554 -8 c0 -16 5 -30 10 -30 6 0 10 14 10 30 0 20 5 30 15 30
11 0 15 -11 15 -40 0 -39 -1 -40 -35 -40 -34 0 -35 1 -35 40 0 22 5 40 10 40
6 0 10 -13 10 -30z m4988 -10 c1 -37 -1 -40 -28 -40 -16 0 -30 7 -34 15 -4 12
0 14 22 10 25 -5 25 -5 5 4 -13 6 -23 19 -23 31 0 15 7 20 29 20 27 0 29 -3
29 -40z m292 0 c0 -22 -4 -40 -10 -40 -5 0 -10 18 -10 40 0 22 5 40 10 40 6 0
10 -18 10 -40z m78 13 c3 -18 -2 -23 -20 -24 l-23 -2 23 -4 c32 -6 27 -23 -7
-23 -33 0 -47 25 -36 61 10 29 59 23 63 -8z m-6098 -140 c0 -9 3 -13 6 -10 4
3 15 2 25 -4 25 -13 27 -79 3 -79 -10 0 -14 6 -10 15 6 18 -2 45 -15 45 -5 0
-9 -13 -9 -30 0 -16 -4 -30 -10 -30 -6 0 -10 27 -10 61 0 37 4 58 10 54 6 -3
10 -13 10 -22z m990 -34 l0 -60 -32 3 c-29 3 -33 7 -36 35 -2 23 2 34 16 42
11 6 22 7 26 4 3 -3 6 3 6 15 0 12 5 22 10 22 6 0 10 -27 10 -61z m4550 0 l0
-60 -32 3 c-30 3 -33 6 -33 38 0 29 4 36 23 38 14 2 22 10 22 23 0 10 5 19 10
19 6 0 10 -27 10 -61z m810 0 l0 -60 -32 3 c-29 3 -33 7 -36 35 -2 23 2 34 16
42 11 6 22 7 26 4 3 -3 6 3 6 15 0 12 5 22 10 22 6 0 10 -27 10 -61z m-6060
41 c0 -5 -4 -10 -10 -10 -5 0 -10 5 -10 10 0 6 5 10 10 10 6 0 10 -4 10 -10z
m250 0 c0 -5 -4 -10 -10 -10 -5 0 -10 5 -10 10 0 6 5 10 10 10 6 0 10 -4 10
-10z m5250 0 c0 -5 -4 -10 -10 -10 -5 0 -10 5 -10 10 0 6 5 10 10 10 6 0 10
-4 10 -10z m120 0 c0 -5 -4 -10 -10 -10 -5 0 -10 5 -10 10 0 6 5 10 10 10 6 0
10 -4 10 -10z m-5954 -15 c9 -8 11 -15 5 -15 -15 0 -14 -43 2 -59 10 -10 8
-12 -8 -9 -14 2 -22 14 -25 38 -6 34 -3 60 7 60 2 0 11 -7 19 -15z m295 8 c5
-79 4 -93 -8 -93 -8 0 -13 12 -13 29 0 17 -5 33 -10 36 -8 5 -7 11 1 21 12 15
29 19 30 7z m245 -8 c9 -8 11 -15 5 -15 -15 0 -14 -43 2 -59 10 -10 8 -12 -8
-9 -14 2 -22 14 -25 38 -6 34 -3 60 7 60 2 0 11 -7 19 -15z m5455 8 c5 -79 4
-93 -8 -93 -8 0 -13 12 -13 29 0 17 -4 33 -10 36 -6 4 -10 -8 -10 -29 0 -25
-4 -36 -15 -36 -11 0 -15 11 -15 40 0 33 3 40 19 40 11 0 23 5 26 10 7 12 25
13 26 3z m-6121 -59 c0 -34 -1 -35 -32 -32 -30 3 -33 6 -33 36 -1 38 20 55 47
41 12 -7 18 -21 18 -45z m300 16 c0 -15 -7 -20 -27 -21 l-28 -1 30 -8 c24 -5
27 -8 13 -14 -31 -14 -53 -2 -56 29 -5 36 21 59 49 44 11 -5 19 -19 19 -29z
m80 -15 c0 -44 -18 -46 -22 -2 -2 17 -7 32 -13 32 -5 0 -11 -15 -13 -32 -5
-46 -22 -41 -22 6 0 29 4 41 18 44 32 7 52 -12 52 -48z m240 0 c0 -32 -3 -35
-28 -35 -15 0 -33 5 -40 12 -9 9 -12 9 -12 -1 0 -18 -51 -9 -64 12 -8 12 -8
22 0 35 15 23 60 28 67 8 7 -19 -4 -21 -20 -5 -8 8 -14 5 -23 -10 -9 -17 -8
-22 4 -27 21 -8 59 15 52 32 -7 19 24 35 46 23 12 -6 18 -21 18 -44z m176 19
c8 -32 -13 -56 -45 -52 -20 2 -27 9 -29 33 -6 53 61 71 74 19z m68 20 c21 -21
21 -74 1 -74 -9 0 -15 6 -14 13 1 6 1 22 0 35 -2 34 -21 16 -21 -19 0 -16 -4
-29 -10 -29 -5 0 -10 18 -10 39 0 29 5 41 18 44 9 3 18 5 19 6 1 0 9 -6 17
-15z m112 8 c6 -4 14 -24 17 -44 6 -38 5 -38 -28 -38 -19 0 -35 6 -38 14 -6
16 11 36 30 36 7 0 13 5 13 10 0 7 -6 7 -20 0 -16 -8 -20 -8 -20 4 0 8 6 17
13 19 17 8 21 8 33 -1z m104 -48 c0 -43 -18 -44 -22 -1 -2 17 -7 32 -13 32 -5
0 -11 -15 -13 -32 -5 -46 -22 -41 -22 6 0 33 4 40 23 43 32 6 47 -10 47 -48z
m4252 28 c-7 -2 -12 -17 -12 -33 0 -16 -4 -29 -10 -29 -5 0 -10 18 -10 39 0
30 4 40 18 43 19 4 32 -14 14 -20z m152 12 c14 -14 18 -14 31 -1 31 32 75 -7
60 -53 -7 -23 -44 -27 -64 -7 -11 10 -14 10 -18 0 -6 -18 -48 -16 -63 2 -7 8
-24 14 -39 14 -25 -1 -25 -2 4 -9 24 -5 27 -8 13 -14 -40 -18 -83 18 -62 52
14 21 54 28 65 10 6 -9 11 -10 17 -2 4 6 14 14 22 17 8 3 16 6 17 6 1 1 9 -6
17 -15z m143 -9 c-10 -7 -17 -24 -17 -39 0 -14 -4 -26 -10 -26 -5 0 -10 18
-10 39 0 29 4 41 18 44 26 6 37 -5 19 -18z m160 -27 c-2 -29 -5 -33 -31 -33
-16 0 -31 6 -34 13 -3 9 4 11 25 7 24 -5 25 -4 7 4 -32 14 -40 32 -19 47 28
21 54 1 52 -38z m410 21 c-3 -11 -1 -21 4 -24 4 -3 5 -12 2 -21 -7 -18 -54
-15 -61 5 -3 9 2 11 19 7 l24 -6 -22 11 c-27 14 -30 46 -5 51 28 7 44 -3 39
-23z m153 -25 c0 -34 -1 -35 -32 -32 -30 3 -33 6 -33 36 -1 38 20 55 47 41 12
-7 18 -21 18 -45z m90 1 c0 -23 -5 -35 -14 -35 -7 0 -13 8 -13 18 0 40 -4 53
-13 47 -5 -3 -10 -19 -10 -36 0 -16 -4 -29 -10 -29 -5 0 -10 18 -10 39 0 29 4
41 18 44 32 7 52 -12 52 -48z m-6402 18 c-2 -15 2 -28 10 -30 8 -3 12 6 12 26
0 17 5 31 10 31 6 0 10 -18 10 -40 0 -37 -2 -40 -29 -40 -30 0 -41 14 -41 56
0 15 6 24 16 24 11 0 14 -8 12 -27z m422 -13 c0 -22 -4 -40 -10 -40 -5 0 -10
18 -10 40 0 22 5 40 10 40 6 0 10 -18 10 -40z m250 0 c0 -22 -4 -40 -10 -40
-5 0 -10 18 -10 40 0 22 5 40 10 40 6 0 10 -18 10 -40z m5179 18 l8 -23 7 23
c7 20 26 32 26 15 0 -17 -25 -73 -33 -73 -7 0 -37 60 -37 75 0 15 22 2 29 -17z
m71 -18 c0 -22 -4 -40 -10 -40 -5 0 -10 18 -10 40 0 22 5 40 10 40 6 0 10 -18
10 -40z m78 -2 c2 -36 1 -38 -27 -38 -16 0 -31 6 -35 15 -3 8 -2 15 3 15 4 0
6 12 3 26 -4 23 -2 25 24 22 25 -3 29 -7 32 -40z m-220 -35 c-2 -9 -8 -18 -15
-20 -7 -3 -9 3 -6 16 6 25 26 28 21 4z m422 10 c0 -14 -19 -38 -25 -32 -8 8 5
39 16 39 5 0 9 -3 9 -7z m-550 -99 c0 -8 3 -13 8 -13 25 4 32 -4 32 -41 0 -22
-4 -40 -10 -40 -5 0 -10 14 -10 30 0 17 -4 30 -10 30 -5 0 -10 -13 -10 -30 0
-20 -5 -30 -15 -30 -11 0 -15 13 -15 53 0 30 3 57 6 60 10 9 24 -2 24 -19z
m-4534 -9 c9 -8 11 -15 5 -15 -15 0 -14 -43 2 -59 10 -10 8 -12 -8 -9 -14 2
-22 14 -25 38 -6 34 -3 60 7 60 2 0 11 -7 19 -15z m-351 -15 c9 14 53 12 58
-2 3 -10 7 -10 20 0 9 8 26 12 39 10 19 -2 23 -9 23 -38 0 -31 -3 -35 -27 -38
-20 -2 -30 3 -39 20 -18 33 -41 49 -56 36 -20 -16 -3 -40 23 -34 18 5 22 3 18
-9 -7 -17 -49 -20 -59 -5 -5 8 -11 7 -20 0 -8 -6 -24 -10 -37 -8 -30 4 -38 56
-12 75 15 11 22 10 40 -2 14 -9 25 -11 29 -5z m305 -31 c0 -21 -4 -39 -10 -39
-5 0 -10 16 -10 36 0 21 -4 33 -10 29 -5 -3 -10 -19 -10 -36 0 -19 -5 -29 -15
-29 -11 0 -15 11 -15 39 0 33 4 40 23 43 38 6 47 -2 47 -43z m4248 0 c1 -37
-1 -39 -29 -39 -18 0 -29 5 -29 14 0 9 8 13 23 10 l22 -5 -22 10 c-25 11 -31
47 -10 54 29 10 45 -5 45 -44z m-4656 1 c3 -39 3 -40 -28 -40 -31 0 -53 23
-35 35 5 3 7 14 4 25 -4 17 0 20 25 20 28 0 30 -3 34 -40z m278 10 c0 -20 5
-30 15 -30 10 0 15 10 15 30 0 17 5 30 10 30 6 0 10 -18 10 -41 0 -39 -1 -40
-32 -37 -30 3 -33 6 -36 41 -2 21 1 37 7 37 6 0 11 -13 11 -30z m4460 10 c11
-21 9 -24 -35 -33 -15 -3 -13 -5 8 -6 37 -1 35 -21 -2 -21 -33 0 -47 25 -36
60 8 27 51 27 65 0z m80 -21 c0 -39 -1 -40 -32 -37 -29 3 -33 7 -33 33 -1 42
2 45 36 45 27 0 29 -2 29 -41z m60 31 c0 -5 -4 -10 -10 -10 -5 0 -10 -13 -10
-30 0 -20 -5 -30 -15 -30 -11 0 -15 11 -15 40 0 36 3 40 25 40 14 0 25 -4 25
-10z m68 -8 c3 -9 -3 -11 -22 -6 -22 5 -26 3 -26 -16 0 -19 4 -21 26 -16 19 5
25 3 22 -6 -3 -7 -16 -14 -30 -16 -30 -4 -44 23 -33 59 5 15 14 19 33 17 14
-2 27 -9 30 -16z m-298 -132 c0 -5 -5 -10 -11 -10 -6 0 -9 -7 -6 -15 4 -8 2
-17 -3 -20 -6 -4 -10 -19 -10 -36 0 -44 -17 -35 -22 12 -2 24 2 49 10 60 14
20 42 26 42 9z m600 -50 c0 -33 -4 -60 -10 -60 -6 0 -10 27 -10 60 0 33 4 60
10 60 6 0 10 -27 10 -60z m-290 40 c0 -5 -4 -10 -10 -10 -5 0 -10 5 -10 10 0
6 5 10 10 10 6 0 10 -4 10 -10z m330 0 c0 -5 -4 -10 -9 -10 -6 0 -13 5 -16 10
-3 6 1 10 9 10 9 0 16 -4 16 -10z m80 0 c0 -5 -4 -10 -10 -10 -5 0 -10 5 -10
10 0 6 5 10 10 10 6 0 10 -4 10 -10z m-4949 -12 c1 -7 0 -17 -1 -23 -8 -38 -8
-45 1 -45 5 0 9 -5 9 -11 0 -6 -8 -9 -17 -7 -12 2 -20 16 -23 38 -7 43 -2 60
16 60 8 0 15 -6 15 -12z m4500 5 c5 -79 4 -93 -8 -93 -8 0 -13 12 -13 29 0 17
-4 33 -10 36 -5 3 -10 1 -10 -5 0 -6 -10 -8 -25 -4 -21 5 -25 3 -25 -16 0 -19
4 -21 26 -16 19 5 25 3 22 -6 -6 -18 -49 -23 -59 -6 -24 38 -1 73 45 70 20 -2
36 2 36 8 0 11 20 14 21 3z m410 0 c5 -79 4 -93 -8 -93 -8 0 -13 12 -13 29 0
17 -4 33 -10 36 -6 4 -10 -9 -10 -30 0 -49 -25 -41 -26 8 -1 29 3 37 17 37 10
0 21 5 24 10 7 12 25 13 26 3z m-5673 -17 c14 -9 16 -76 3 -76 -6 0 -11 15
-13 33 -2 17 -7 32 -13 32 -5 0 -11 -15 -13 -32 -2 -18 -7 -33 -12 -33 -5 0
-10 15 -12 33 -2 17 -7 32 -13 32 -5 0 -11 -15 -13 -32 -5 -46 -22 -41 -22 6
0 33 4 40 23 43 34 5 72 2 85 -6z m92 -42 c0 -34 -1 -35 -32 -32 -30 3 -33 6
-33 36 -1 38 20 55 47 41 12 -7 18 -21 18 -45z m74 40 c21 -20 21 -74 1 -74
-8 0 -14 8 -13 18 3 34 -2 53 -12 47 -5 -3 -10 -19 -10 -36 0 -16 -4 -29 -10
-29 -5 0 -10 18 -10 39 0 29 5 41 18 44 9 3 18 5 19 6 1 0 9 -6 17 -15z m96
-39 c0 -33 -2 -35 -35 -35 -29 0 -35 4 -35 21 0 12 8 23 20 26 11 3 20 9 20
15 0 5 -9 4 -20 -2 -25 -13 -28 5 -3 19 29 16 53 -5 53 -44z m163 23 c4 -8 6
-7 6 4 1 19 27 25 84 19 36 -3 37 -4 37 -42 0 -21 -4 -39 -10 -39 -5 0 -10 13
-10 29 0 17 -4 32 -9 35 -10 7 -21 -17 -21 -45 0 -10 -4 -19 -10 -19 -5 0 -10
14 -10 30 0 17 -4 30 -10 30 -5 0 -10 -13 -10 -30 0 -20 -5 -30 -15 -30 -8 0
-15 8 -15 19 0 15 -5 17 -27 12 -26 -5 -26 -6 -5 -9 32 -5 27 -22 -7 -22 -41
0 -56 44 -25 74 17 17 47 8 57 -16z m287 -19 c0 -21 -4 -39 -10 -39 -5 0 -10
16 -10 36 0 21 -4 33 -10 29 -5 -3 -10 -19 -10 -35 0 -28 -2 -29 -46 -27 -54
2 -77 24 -58 55 14 21 54 28 65 10 6 -9 9 -9 9 -1 0 12 36 22 58 15 7 -2 12
-21 12 -43z m4430 0 c0 -21 -4 -39 -10 -39 -5 0 -10 14 -10 30 0 20 -5 30 -15
30 -10 0 -15 -10 -15 -30 0 -16 -4 -30 -10 -30 -5 0 -10 18 -10 39 0 33 4 40
23 43 38 6 47 -2 47 -43z m248 -2 c-3 -28 -7 -32 -33 -32 -26 0 -30 4 -33 30
-5 37 21 59 50 44 14 -8 18 -19 16 -42z m82 2 c0 -21 -4 -39 -10 -39 -5 0 -10
14 -10 30 0 17 -4 30 -10 30 -5 0 -10 -13 -10 -30 0 -20 -5 -30 -15 -30 -11 0
-15 11 -15 39 0 33 4 40 23 43 38 6 47 -2 47 -43z m81 27 c0 -6 2 -23 4 -38 3
-26 1 -28 -30 -28 -31 0 -55 23 -36 35 5 3 7 14 4 24 -3 13 1 20 14 23 24 6
43 -1 44 -16z m233 8 c25 -24 19 -44 -11 -45 l-28 -2 28 -4 c32 -5 27 -23 -7
-23 -45 0 -59 37 -26 70 24 24 24 24 44 4z m-5446 -46 c-3 -47 -6 -53 -27 -56
-13 -2 -28 1 -34 7 -8 8 -3 11 19 12 28 1 28 1 4 8 -16 4 -26 15 -28 30 -6 37
5 51 38 51 l31 0 -3 -52z m4672 22 c0 -20 5 -30 15 -30 10 0 15 10 15 30 0 17
5 30 10 30 6 0 10 -18 10 -41 0 -39 -1 -40 -32 -37 -30 3 -33 6 -36 41 -2 21
1 37 7 37 6 0 11 -13 11 -30z m290 -10 c0 -22 -4 -40 -10 -40 -5 0 -10 18 -10
40 0 22 5 40 10 40 6 0 10 -18 10 -40z m410 0 c0 -22 -4 -40 -10 -40 -5 0 -10
18 -10 40 0 22 5 40 10 40 6 0 10 -18 10 -40z m158 -2 c2 -36 1 -38 -27 -38
-17 0 -31 6 -35 16 -5 13 -1 15 21 10 26 -5 27 -5 6 6 -13 6 -23 20 -23 30 0
15 6 19 27 16 24 -3 28 -8 31 -40z m-5068 -28 c0 -5 -4 -10 -10 -10 -5 0 -10
5 -10 10 0 6 5 10 10 10 6 0 10 -4 10 -10z m5110 0 c0 -5 -4 -10 -10 -10 -5 0
-10 5 -10 10 0 6 5 10 10 10 6 0 10 -4 10 -10z m-2920 -99 c5 -11 10 -36 10
-56 0 -40 30 -159 56 -220 72 -174 229 -342 399 -427 183 -92 359 -114 583
-73 31 6 33 4 51 -38 10 -24 28 -76 39 -114 l20 -71 -42 -18 c-194 -84 -354
-240 -442 -429 -57 -124 -76 -212 -77 -355 0 -132 15 -223 53 -305 11 -24 20
-48 20 -52 0 -4 15 -33 34 -65 l34 -56 -21 -20 c-38 -34 -151 -112 -162 -112
-6 0 -37 27 -70 61 -107 109 -247 189 -400 230 -116 31 -299 31 -415 0 -157
-41 -278 -112 -395 -230 -33 -34 -64 -61 -71 -61 -12 0 -117 72 -155 107 l-26
24 49 97 c70 140 91 228 90 387 0 100 -5 149 -21 210 -61 230 -225 431 -438
537 -88 43 -103 54 -97 70 3 11 14 48 24 82 37 123 41 129 80 122 168 -29 251
-30 392 -1 186 38 373 164 494 332 80 111 153 299 154 395 0 60 17 68 135 68
93 0 105 -2 115 -19z m-265 -43 c-25 -189 -96 -342 -224 -480 -159 -172 -419
-272 -660 -254 -84 6 -161 21 -161 33 0 17 83 159 134 228 116 158 310 320
484 403 113 55 327 118 410 121 23 1 24 -1 17 -51z m405 36 c368 -69 701 -317
892 -663 31 -56 38 -75 27 -81 -27 -17 -185 -33 -269 -26 -177 14 -311 65
-451 172 -169 130 -287 340 -313 562 -8 61 -11 60 114 36z m-1629 -990 l66
-15 -13 -77 c-23 -146 -11 -391 26 -532 5 -19 10 -38 10 -42 2 -22 58 -155 99
-238 53 -106 145 -234 233 -324 l57 -59 -31 -40 c-103 -130 -246 -223 -413
-271 -321 -93 -683 28 -880 293 -117 158 -168 308 -167 496 0 266 102 481 304
646 200 163 452 220 709 163z m3129 2 c188 -49 339 -147 455 -296 199 -257
229 -632 73 -910 -125 -222 -335 -371 -585 -415 -229 -40 -442 8 -630 142 -60
43 -183 168 -183 186 0 5 34 46 76 90 259 276 390 655 354 1030 -5 62 -13 122
-16 134 -6 23 8 29 120 53 57 13 269 4 336 -14z m-2926 -75 c348 -184 517
-607 394 -991 -25 -80 -88 -200 -104 -200 -20 0 -141 138 -205 233 -177 264
-255 579 -220 887 7 57 15 108 18 113 7 11 38 0 117 -42z m2457 -3 c5 -24 12
-99 15 -168 17 -353 -107 -683 -359 -955 -58 -62 -67 -68 -80 -55 -20 21 -73
121 -87 167 -6 21 -14 45 -17 53 -3 8 -7 22 -9 30 -24 122 -26 154 -20 244 18
283 143 499 377 652 63 41 160 86 168 78 2 -2 8 -23 12 -46z m-4447 -450 c7
-12 6 -23 -3 -41 -10 -18 -10 -30 -2 -45 14 -27 14 -32 -2 -32 -8 0 -19 11
-25 25 -6 14 -18 25 -27 25 -9 0 -15 -9 -15 -25 0 -14 -4 -25 -10 -25 -6 0
-10 30 -10 71 l0 70 41 -3 c26 -2 46 -10 53 -20z m484 -8 c7 -12 8 -20 2 -20
-5 0 -10 -16 -10 -35 0 -19 5 -35 10 -35 6 0 10 -5 10 -11 0 -6 -10 -9 -22 -7
-19 2 -24 10 -26 46 -2 23 -7 42 -12 42 -26 0 -41 -16 -46 -51 -9 -57 -24 -48
-24 16 l0 54 36 -3 c23 -1 38 2 41 11 7 19 26 16 41 -7z m-378 -15 c20 -24 8
-50 -23 -48 -19 1 -27 -2 -24 -10 2 -7 13 -12 25 -12 29 -1 33 -19 5 -23 -38
-6 -63 15 -63 53 0 48 51 74 80 40z m108 2 c15 -12 16 -69 0 -85 -7 -7 -20
-12 -30 -12 -11 0 -18 -7 -18 -20 0 -11 -7 -20 -15 -20 -12 0 -15 15 -15 73
l0 74 33 0 c17 0 38 -4 45 -10z m112 -2 c29 -35 7 -95 -34 -95 -31 0 -46 19
-46 57 0 47 52 72 80 38z m5540 -179 l16 -50 14 48 c12 44 32 67 46 53 3 -3
-5 -37 -17 -77 -20 -60 -26 -70 -44 -68 -14 2 -26 19 -42 63 -27 73 -28 87 -6
83 9 -2 23 -23 33 -52z m123 39 c1 -5 -6 -11 -15 -13 -11 -2 -18 3 -18 13 0
17 30 18 33 0z m157 0 c0 -8 -7 -15 -15 -15 -8 0 -15 7 -15 15 0 8 7 15 15 15
8 0 15 -7 15 -15z m170 -15 c0 -25 4 -30 24 -30 19 0 25 6 28 27 2 17 10 29
21 31 15 3 17 -6 17 -72 0 -69 -2 -76 -20 -76 -16 0 -20 7 -20 30 0 25 -4 30
-25 30 -21 0 -25 -5 -25 -30 0 -20 -5 -30 -15 -30 -12 0 -15 15 -15 75 0 60 3
75 15 75 10 0 15 -10 15 -30z m140 15 c0 -8 -7 -15 -15 -15 -8 0 -15 7 -15 15
0 8 7 15 15 15 8 0 15 -7 15 -15z m-246 -16 c13 -15 15 -24 7 -32 -14 -14 -14
-54 -1 -62 18 -11 10 -25 -15 -25 -18 0 -26 6 -30 25 -3 14 -7 36 -10 50 -5
25 9 65 23 65 4 0 16 -10 26 -21z m406 7 c0 -8 6 -16 13 -19 10 -4 10 -7 0
-18 -15 -16 -17 -55 -3 -64 18 -11 10 -26 -12 -23 -18 2 -24 11 -26 38 -2 19
-9 41 -15 49 -9 11 -9 15 1 18 6 3 12 11 12 19 0 8 7 14 15 14 8 0 15 -6 15
-14z m-630 -71 c0 -42 -3 -55 -15 -55 -12 0 -15 13 -15 55 0 42 3 55 15 55 12
0 15 -13 15 -55z m100 40 c17 -21 4 -32 -19 -18 -11 7 -22 9 -25 6 -4 -4 8
-13 25 -20 23 -10 30 -18 27 -35 -2 -19 -10 -24 -41 -26 -27 -2 -39 1 -44 13
-3 10 0 21 7 25 8 5 9 9 1 14 -15 10 -14 43 2 49 25 10 55 7 67 -8z m60 -40
c0 -42 -3 -55 -15 -55 -12 0 -15 13 -15 55 0 42 3 55 15 55 12 0 15 -13 15
-55z m310 0 c0 -42 -3 -55 -15 -55 -12 0 -15 13 -15 55 0 42 3 55 15 55 12 0
15 -13 15 -55z m98 43 c7 -7 12 -16 12 -20 0 -13 -38 -9 -42 4 -3 9 -6 9 -12
0 -4 -7 2 -14 18 -18 50 -12 39 -64 -13 -64 -26 0 -51 16 -51 32 0 4 7 8 15 8
12 0 13 4 4 19 -7 10 -9 26 -6 35 7 19 57 22 75 4z m181 -19 c13 -24 13 -29
-2 -53 -33 -49 -97 -28 -97 33 0 53 72 67 99 20z m129 4 l10 -28 7 28 c5 18
14 27 27 27 21 0 21 3 -12 -95 -12 -37 -22 -51 -38 -53 -24 -4 -29 7 -11 25
17 17 -9 93 -32 93 -16 0 -32 -26 -28 -46 4 -22 -2 -34 -16 -34 -12 0 -15 13
-15 55 l0 55 49 0 c45 0 50 -3 59 -27z m-7488 -41 c22 -58 27 -59 41 -13 26
89 59 78 59 -20 0 -55 -3 -69 -15 -69 -11 0 -15 12 -16 48 l0 47 -18 -45 c-10
-24 -23 -46 -29 -48 -5 -1 -16 14 -22 35 -18 57 -28 61 -23 9 5 -38 3 -46 -11
-46 -13 0 -16 12 -16 68 0 38 3 72 7 76 13 13 28 -1 43 -42z m1108 8 c7 -12 8
-20 2 -20 -5 0 -10 -16 -10 -35 0 -19 5 -35 10 -35 6 0 10 -5 10 -11 0 -6 -10
-9 -22 -7 -19 2 -24 10 -26 46 -2 23 -7 42 -13 42 -5 0 -4 9 3 20 7 11 17 20
23 20 6 0 16 -9 23 -20z m-914 -16 c9 -9 16 -32 16 -54 l0 -39 -42 2 c-36 2
-43 6 -46 25 -3 18 3 25 27 33 37 13 31 32 -7 22 -24 -6 -26 -5 -13 10 17 21
45 22 65 1z m114 3 c18 -14 16 -97 -3 -97 -11 0 -15 11 -15 39 0 68 -29 64
-32 -4 -1 -22 -6 -35 -15 -35 -9 0 -13 15 -13 53 l0 54 33 0 c17 0 38 -4 45
-10z m105 -2 c8 -8 15 -32 15 -54 l1 -40 -42 2 c-37 2 -42 5 -42 27 0 17 7 26
23 30 30 7 24 26 -7 22 -21 -3 -23 -1 -12 12 17 20 45 20 64 1z m125 -53 c-2
-46 -8 -68 -19 -75 -18 -11 -73 -1 -64 12 3 5 14 7 24 4 10 -3 22 0 25 6 4 6
-1 11 -11 11 -28 0 -43 20 -43 55 0 40 14 53 56 52 l35 -1 -3 -64z m100 56 c7
-7 12 -20 12 -30 0 -13 -8 -18 -31 -18 -20 0 -29 -4 -26 -12 2 -7 16 -12 31
-10 33 3 35 -15 2 -24 -39 -9 -66 11 -66 51 0 47 48 73 78 43z m180 -45 c2
-42 0 -53 -12 -53 -10 0 -16 13 -18 43 -2 23 -7 42 -13 42 -5 0 -11 -19 -13
-42 -2 -29 -8 -43 -18 -43 -10 0 -14 12 -14 40 0 29 -4 40 -15 40 -11 0 -15
-11 -15 -40 0 -29 -4 -40 -15 -40 -11 0 -15 13 -15 54 l0 53 73 -1 72 -1 3
-52z m109 27 c12 -24 11 -25 -23 -28 -22 -2 -34 -8 -31 -15 2 -7 16 -11 31
-10 35 3 29 -21 -6 -25 -49 -6 -78 57 -42 93 23 22 56 15 71 -15z m111 -27 c2
-42 0 -53 -12 -53 -10 0 -16 13 -18 43 -2 23 -7 42 -13 42 -5 0 -11 -19 -13
-42 -2 -29 -8 -43 -18 -43 -10 0 -14 14 -14 54 l0 55 43 -2 42 -2 3 -52z
m5662 -244 c0 -27 2 -30 15 -19 8 7 21 10 28 7 8 -3 20 -1 27 3 24 15 48 -7
47 -42 -2 -29 -5 -33 -31 -33 -16 0 -31 6 -34 13 -3 9 4 11 25 7 25 -5 26 -4
5 5 -12 5 -25 16 -28 25 -5 12 -10 13 -20 4 -11 -9 -11 -15 3 -35 18 -29 -2
-35 -23 -6 -13 16 -13 16 -14 0 0 -10 -4 -18 -10 -18 -6 0 -10 27 -10 60 0 33
4 60 10 60 6 0 10 -14 10 -31z m410 -35 l0 -54 -34 0 c-38 0 -53 22 -41 60 6
18 11 21 32 19 4 0 11 9 15 21 13 36 28 12 28 -46z m-640 46 c0 -5 -7 -10 -15
-10 -11 0 -15 -12 -15 -45 0 -33 -4 -45 -15 -45 -11 0 -15 12 -15 45 0 33 -4
45 -15 45 -8 0 -15 5 -15 10 0 6 20 10 45 10 25 0 45 -4 45 -10z m-5480 -36
c0 -8 3 -13 8 -13 25 4 32 -4 32 -41 0 -22 -4 -40 -10 -40 -5 0 -10 14 -10 30
0 35 -19 41 -21 8 -1 -13 -1 -26 0 -30 0 -5 -15 -8 -34 -8 -33 0 -35 2 -35 35
0 19 -5 35 -11 35 -6 0 -3 8 7 17 13 13 19 14 22 5 6 -19 19 -14 25 9 6 23 27
17 27 -7z m5517 1 c-10 -7 -17 -24 -17 -39 0 -14 -4 -26 -10 -26 -5 0 -10 18
-10 39 0 29 4 41 18 44 26 6 37 -5 19 -18z m67 9 c9 -8 16 -29 16 -45 0 -26
-3 -29 -35 -29 -33 0 -34 1 -33 35 1 29 15 51 35 55 1 0 9 -7 17 -16z m96 -14
c0 -13 -17 -13 -25 0 -9 15 -25 2 -25 -22 0 -17 4 -19 26 -14 19 5 25 3 22 -6
-3 -7 -18 -13 -34 -13 -25 0 -29 4 -32 30 -5 36 21 59 49 44 11 -5 19 -14 19
-19z m254 14 c9 -8 16 -29 16 -45 0 -26 -3 -29 -35 -29 -33 0 -34 1 -33 35 1
29 15 51 35 55 1 0 9 -7 17 -16z m96 -35 c0 -21 -4 -39 -10 -39 -5 0 -10 14
-10 30 0 20 -5 30 -15 30 -10 0 -15 -10 -15 -30 0 -16 -4 -30 -10 -30 -5 0
-10 18 -10 39 0 33 4 40 23 43 38 6 47 -2 47 -43z m251 29 c5 -7 9 -18 9 -25
0 -8 6 -8 24 0 13 7 22 15 19 20 -3 4 -11 3 -19 -4 -11 -9 -14 -8 -14 4 0 8 7
17 15 21 24 9 45 -4 45 -29 0 -13 3 -30 6 -39 5 -13 -1 -16 -30 -16 -22 0 -36
5 -37 13 0 10 -2 10 -6 0 -11 -28 -33 -13 -33 23 0 21 -4 33 -10 29 -5 -3 -10
-19 -10 -36 0 -19 -5 -29 -15 -29 -11 0 -15 11 -15 36 0 21 -4 33 -10 29 -5
-3 -10 -19 -10 -36 0 -16 -4 -29 -10 -29 -5 0 -10 18 -10 39 0 43 7 47 68 45
19 -1 38 -8 43 -16z m157 10 c14 -14 16 -78 3 -78 -6 0 -11 15 -13 33 -2 17
-7 32 -13 32 -5 0 -11 -15 -13 -32 -5 -46 -22 -41 -22 6 0 38 3 42 41 50 3 0
10 -4 17 -11z m92 -44 c0 -34 -1 -35 -32 -32 -30 3 -33 6 -33 36 -1 38 20 55
47 41 12 -7 18 -21 18 -45z m90 27 c1 -14 2 -14 11 2 13 21 55 22 63 1 11 -27
7 -34 -21 -35 l-28 -2 28 -4 c15 -2 25 -9 22 -14 -9 -13 -52 -11 -61 2 -4 8
-12 2 -21 -15 -9 -17 -22 -26 -38 -26 -31 0 -33 20 -2 21 20 1 20 2 2 6 -58
15 -39 97 19 86 15 -3 26 -12 26 -22z m148 -22 c1 -36 -1 -39 -28 -39 -16 0
-30 7 -34 15 -4 12 0 14 22 10 26 -5 26 -5 5 6 -40 21 -25 63 18 52 12 -3 17
-16 17 -44z m-7456 4 l15 -38 17 38 c25 56 44 48 44 -18 0 -40 -4 -55 -14 -55
-8 0 -14 10 -15 23 l0 22 -11 -22 c-15 -31 -26 -29 -43 10 l-14 32 -1 -32 c0
-18 -4 -33 -10 -33 -5 0 -10 25 -10 55 0 66 20 74 42 18z m158 -39 c0 -34 -1
-35 -32 -32 -30 3 -33 6 -33 36 -1 38 20 55 47 41 12 -7 18 -21 18 -45z m80 5
c0 -21 -4 -39 -10 -39 -5 0 -10 14 -10 30 0 20 -5 30 -15 30 -10 0 -15 -10
-15 -30 0 -16 -4 -30 -10 -30 -5 0 -10 18 -10 39 0 33 4 40 23 43 38 6 47 -2
47 -43z m80 -5 c0 -34 -1 -35 -32 -32 -30 3 -33 6 -33 36 -1 38 20 55 47 41
12 -7 18 -21 18 -45z m90 6 c0 -56 -8 -70 -41 -70 -16 0 -29 5 -29 10 0 6 10
10 23 10 22 0 21 1 -3 13 -49 25 -29 90 24 80 23 -5 26 -11 26 -43z m80 10 c0
-15 -7 -20 -27 -21 l-28 -1 30 -8 c24 -5 27 -8 13 -14 -31 -14 -53 -2 -56 29
-5 36 21 59 49 44 11 -5 19 -19 19 -29z m74 9 c-4 -6 -11 -6 -20 2 -9 7 -14 8
-14 1 0 -6 9 -14 21 -17 12 -4 19 -14 17 -23 -4 -21 -59 -23 -66 -3 -3 10 2
11 19 6 l24 -8 -25 22 c-24 20 -24 21 -6 36 21 16 62 3 50 -16z m240 15 c25
-24 20 -44 -11 -45 -24 -2 -25 -2 -5 -6 29 -6 29 -23 -1 -23 -46 0 -60 37 -27
70 24 24 24 24 44 4z m2812 -5 c76 -13 175 -45 239 -76 87 -44 211 -142 256
-205 l20 -27 -83 -40 c-121 -57 -214 -86 -368 -116 -14 -3 -73 -8 -131 -11
-211 -13 -433 30 -627 121 -108 51 -108 49 -15 135 189 177 466 262 709 219z
m3304 -120 c0 -11 4 -17 10 -14 19 12 40 -16 40 -51 0 -24 -5 -34 -15 -34 -11
0 -15 11 -15 36 0 21 -4 33 -10 29 -5 -3 -10 -19 -10 -36 0 -16 -4 -29 -10
-29 -6 0 -10 27 -10 60 0 33 4 60 10 60 6 0 10 -9 10 -21z m-600 1 c0 -5 -4
-10 -10 -10 -5 0 -10 5 -10 10 0 6 5 10 10 10 6 0 10 -4 10 -10z m360 0 c0 -5
-4 -10 -10 -10 -5 0 -10 5 -10 10 0 6 5 10 10 10 6 0 10 -4 10 -10z m120 6 c0
-11 -19 -15 -25 -6 -3 5 1 10 9 10 9 0 16 -2 16 -4z m200 -6 c0 -5 -4 -10 -10
-10 -5 0 -10 5 -10 10 0 6 5 10 10 10 6 0 10 -4 10 -10z m300 0 c0 -5 -4 -10
-10 -10 -5 0 -10 5 -10 10 0 6 5 10 10 10 6 0 10 -4 10 -10z m-1019 -7 c5 -79
4 -93 -8 -93 -8 0 -13 12 -13 29 0 17 -5 33 -10 36 -8 5 -7 11 1 21 12 15 29
19 30 7z m250 0 c6 -86 5 -94 -10 -91 -16 3 -31 60 -23 86 4 13 32 17 33 5z
m310 0 c6 -68 3 -93 -11 -91 -8 2 -18 19 -21 38 l-6 35 -2 -37 c-1 -27 -6 -38
-16 -38 -12 0 -15 10 -13 40 1 31 6 40 20 40 10 0 18 5 18 10 0 11 30 14 31 3z
m280 0 c5 -79 4 -93 -8 -93 -8 0 -13 12 -13 29 0 17 -4 33 -10 36 -6 4 -5 11
3 20 13 16 27 19 28 8z m-6341 -63 c0 -33 -4 -60 -10 -60 -6 0 -10 27 -10 60
0 33 4 60 10 60 6 0 10 -27 10 -60z m5378 7 c-2 -24 -8 -33 -25 -35 -13 -2
-23 -10 -23 -18 0 -8 -4 -14 -10 -14 -5 0 -10 24 -10 54 0 44 3 55 18 59 32 7
53 -12 50 -46z m82 -3 c0 -34 -1 -35 -32 -32 -30 3 -33 6 -33 36 -1 38 20 55
47 41 12 -7 18 -21 18 -45z m170 16 c0 -15 -7 -20 -27 -21 l-28 -1 30 -8 c24
-5 27 -8 13 -14 -31 -14 -53 -2 -56 29 -5 36 21 59 49 44 11 -5 19 -19 19 -29z
m80 -15 c0 -25 -4 -35 -16 -35 -9 0 -14 8 -13 18 3 34 -1 53 -11 47 -5 -3 -10
-19 -10 -36 0 -16 -4 -29 -10 -29 -5 0 -10 18 -10 39 0 29 4 41 18 44 32 7 52
-12 52 -48z m268 1 c1 -33 -1 -36 -27 -36 -17 0 -31 6 -35 16 -5 13 -1 15 21
10 26 -5 27 -5 6 6 -25 12 -31 43 -10 51 24 9 44 -12 45 -47z m319 2 c-2 -29
-5 -33 -31 -33 -16 0 -31 6 -34 13 -3 9 4 11 25 7 24 -5 25 -4 7 4 -32 14 -40
32 -19 47 28 21 54 1 52 -38z m132 23 c5 -9 5 -26 0 -39 -7 -18 -15 -23 -36
-20 -23 2 -29 9 -31 33 -6 49 45 69 67 26z m53 1 c-7 -2 -12 -17 -12 -33 0
-16 -4 -29 -10 -29 -5 0 -10 18 -10 39 0 30 4 40 18 43 19 4 32 -14 14 -20z
m198 -2 c0 -13 -13 -13 -27 1 -7 7 -13 7 -17 1 -3 -5 6 -13 20 -16 36 -9 28
-41 -10 -41 -16 0 -31 6 -34 13 -3 9 4 11 25 7 24 -5 25 -4 7 4 -32 14 -40 32
-19 47 19 14 55 3 55 -16z m-7450 10 c0 -5 -4 -10 -10 -10 -5 0 -10 5 -10 10
0 6 5 10 10 10 6 0 10 -4 10 -10z m500 0 c0 -5 -4 -10 -10 -10 -5 0 -10 5 -10
10 0 6 5 10 10 10 6 0 10 -4 10 -10z m5810 -30 c0 -22 -4 -40 -10 -40 -5 0
-10 18 -10 40 0 22 5 40 10 40 6 0 10 -18 10 -40z m289 18 l8 -23 7 23 c7 20
26 32 26 15 0 -17 -25 -73 -33 -73 -7 0 -37 60 -37 75 0 15 22 2 29 -17z m71
-18 c0 -22 -4 -40 -10 -40 -5 0 -10 18 -10 40 0 22 5 40 10 40 6 0 10 -18 10
-40z m320 0 c0 -22 -4 -40 -10 -40 -5 0 -10 18 -10 40 0 22 5 40 10 40 6 0 10
-18 10 -40z m300 0 c0 -22 -4 -40 -10 -40 -5 0 -10 18 -10 40 0 22 5 40 10 40
6 0 10 -18 10 -40z m80 20 c8 -15 8 -21 -2 -24 -39 -13 -42 -14 -20 -15 33 -1
27 -21 -7 -21 -33 0 -47 25 -36 60 8 27 51 27 65 0z m-7409 3 c5 -79 4 -93 -8
-93 -8 0 -13 12 -13 29 0 17 -5 33 -10 36 -8 5 -7 11 1 21 12 15 29 19 30 7z
m450 0 c5 -79 4 -93 -8 -93 -8 0 -13 12 -13 29 0 17 -4 33 -10 36 -6 4 -5 11
3 20 13 16 27 19 28 8z m-654 -28 c-10 -7 -17 -24 -17 -39 0 -14 -4 -26 -10
-26 -5 0 -10 18 -10 39 0 29 4 41 18 44 26 6 37 -5 19 -18z m163 -31 c0 -34
-1 -35 -32 -32 -30 3 -33 6 -33 36 -1 38 20 55 47 41 12 -7 18 -21 18 -45z
m173 24 c4 -9 6 -7 6 3 1 17 36 29 59 21 14 -4 16 -82 2 -82 -5 0 -10 16 -10
36 0 21 -4 33 -10 29 -5 -3 -10 -19 -10 -36 0 -35 -30 -42 -31 -6 l0 22 -10
-23 c-7 -18 -15 -23 -36 -20 -23 2 -29 9 -31 33 -4 35 21 59 49 45 9 -5 20
-15 22 -22z m277 -8 c0 -15 -7 -20 -27 -21 l-28 -1 30 -8 c24 -5 27 -8 13 -14
-30 -13 -53 -2 -56 27 -2 15 -8 27 -13 27 -9 0 -13 -13 -10 -42 1 -10 -4 -18
-13 -18 -12 0 -16 10 -16 40 0 40 0 41 35 38 19 -1 37 1 41 5 12 11 44 -13 44
-33z m228 27 c6 3 16 -6 21 -18 l8 -24 7 23 c7 20 26 32 26 15 0 -17 -25 -73
-32 -73 -5 0 -15 15 -23 33 -8 18 -14 25 -15 15 0 -13 -9 -18 -27 -19 l-28 -1
30 -8 c24 -5 27 -8 13 -14 -31 -14 -53 -2 -56 29 -4 34 21 59 47 46 9 -5 22
-6 29 -4z m126 -3 c9 -8 16 -29 16 -45 0 -26 -3 -29 -35 -29 -33 0 -34 1 -33
35 1 29 15 51 35 55 1 0 9 -7 17 -16z m-1019 -5 c4 -6 4 -13 0 -17 -4 -4 -10
-2 -12 5 -7 18 -33 3 -33 -19 0 -17 4 -19 26 -14 19 5 25 3 22 -6 -3 -7 -16
-14 -30 -16 -29 -4 -44 23 -33 58 7 22 49 28 60 9z m133 -16 c3 -19 -2 -23
-25 -24 l-28 -1 30 -8 c24 -5 27 -8 13 -14 -41 -18 -71 16 -54 60 9 25 60 14
64 -13z m162 -13 c0 -22 -4 -40 -10 -40 -5 0 -10 18 -10 40 0 22 5 40 10 40 6
0 10 -18 10 -40z m500 0 c0 -22 -4 -40 -10 -40 -5 0 -10 16 -10 35 0 26 -3 33
-15 29 -9 -4 -15 -19 -15 -35 0 -16 -4 -29 -10 -29 -5 0 -10 18 -10 40 0 39 1
40 35 40 34 0 35 -1 35 -40z m-290 -27 c0 -5 -4 -15 -10 -23 -11 -18 -25 -7
-17 15 6 15 27 21 27 8z m600 0 c0 -14 -19 -38 -25 -32 -8 8 5 39 16 39 5 0 9
-3 9 -7z m5500 -104 l0 -60 -32 3 c-29 3 -33 7 -36 35 -2 23 2 34 16 42 11 6
22 7 26 4 3 -3 6 3 6 15 0 12 5 22 10 22 6 0 10 -27 10 -61z m470 -5 l0 -54
-34 0 c-38 0 -53 22 -41 60 6 18 11 21 32 19 4 0 11 9 15 21 13 36 28 12 28
-46z m-6720 -24 c0 -60 0 -60 -30 -60 -19 0 -33 7 -40 20 -16 30 -3 60 26 60
17 0 24 5 24 20 0 11 5 20 10 20 6 0 10 -27 10 -60z m120 0 c0 -59 0 -60 -28
-60 -32 0 -52 16 -52 41 0 24 27 49 45 43 10 -4 15 0 15 15 0 12 5 21 10 21 6
0 10 -27 10 -60z m110 0 c0 -33 -4 -60 -10 -60 -6 0 -10 27 -10 60 0 33 4 60
10 60 6 0 10 -27 10 -60z m520 51 c0 -5 -6 -12 -12 -14 -10 -4 -9 -8 2 -16 10
-7 11 -11 3 -11 -8 0 -13 -14 -13 -35 0 -19 -4 -35 -10 -35 -9 0 -15 54 -10
90 3 23 40 42 40 21z m5331 -15 c0 -6 2 -23 4 -38 3 -26 1 -28 -30 -28 -32 0
-55 23 -35 35 5 3 6 13 3 21 -3 9 0 20 7 24 16 10 50 1 51 -14z m89 -32 c0
-43 -18 -44 -22 -1 -2 17 -7 32 -13 32 -5 0 -11 -15 -13 -32 -5 -46 -22 -41
-22 6 0 33 4 40 23 43 32 6 47 -10 47 -48z m167 31 c-10 -7 -17 -24 -17 -39 0
-14 -4 -26 -10 -26 -5 0 -10 18 -10 39 0 29 4 41 18 44 26 6 37 -5 19 -18z
m163 -5 c0 -13 -17 -13 -25 0 -9 15 -25 2 -25 -22 0 -17 4 -19 26 -14 19 5 25
3 22 -6 -3 -7 -18 -13 -34 -13 -25 0 -29 4 -32 30 -5 36 21 59 49 44 11 -5 19
-14 19 -19z m79 1 c5 -9 5 -26 0 -39 -7 -18 -15 -23 -36 -20 -23 2 -29 9 -31
33 -6 49 45 69 67 26z m53 1 c-7 -2 -12 -17 -12 -33 0 -16 -4 -29 -10 -29 -5
0 -10 18 -10 39 0 30 4 40 18 43 19 4 32 -14 14 -20z m-6232 8 c0 -5 -4 -10
-10 -10 -5 0 -10 5 -10 10 0 6 5 10 10 10 6 0 10 -4 10 -10z m2390 -13 c0 5 4
3 8 -2 10 -15 229 -102 277 -111 6 -1 46 -10 90 -20 97 -22 349 -25 465 -5
112 19 233 58 344 109 l98 46 20 -24 c25 -31 72 -123 98 -194 63 -166 62 -390
-1 -561 -14 -38 -42 -98 -49 -105 -3 -3 -11 -18 -18 -33 -27 -62 -121 -169
-205 -233 -203 -156 -483 -211 -725 -144 -75 21 -210 80 -234 103 -7 6 -31 25
-53 42 -98 72 -172 159 -228 270 -52 103 -76 184 -89 301 -19 165 8 306 89
472 19 39 39 72 43 72 4 0 10 10 13 22 6 20 7 20 31 4 15 -9 26 -13 26 -9z
m3628 -4 c3 -19 -2 -23 -25 -24 l-28 -1 30 -8 c24 -5 27 -8 13 -14 -41 -18
-71 16 -54 60 9 25 60 14 64 -13z m369 7 c-3 -11 -1 -22 4 -25 4 -3 5 -12 2
-21 -7 -18 -54 -15 -61 5 -3 9 2 11 19 7 l24 -6 -22 11 c-38 20 -28 49 15 49
19 0 23 -4 19 -20z m-6431 -5 c9 -8 11 -15 5 -15 -15 0 -14 -43 1 -58 9 -9 7
-12 -9 -12 -17 0 -22 7 -25 39 -5 61 2 73 28 46z m-526 -51 c0 -34 -1 -35 -32
-32 -30 3 -33 6 -33 36 -1 38 20 55 47 41 12 -7 18 -21 18 -45z m80 5 c0 -21
-4 -39 -10 -39 -5 0 -10 14 -10 30 0 17 -4 30 -10 30 -5 0 -10 -13 -10 -30 0
-20 -5 -30 -15 -30 -11 0 -15 11 -15 39 0 33 4 40 23 43 38 6 47 -2 47 -43z
m290 11 c0 -15 -7 -20 -27 -21 l-28 -1 30 -8 c24 -5 27 -8 13 -14 -31 -14 -53
-2 -56 29 -5 36 21 59 49 44 11 -5 19 -19 19 -29z m120 0 c0 -15 -7 -20 -27
-21 l-28 -1 30 -8 c24 -5 27 -8 13 -14 -31 -14 -53 -2 -56 29 -5 36 21 59 49
44 11 -5 19 -19 19 -29z m250 -15 c0 -44 -18 -46 -22 -2 -2 17 -7 32 -13 32
-5 0 -11 -15 -13 -32 -5 -46 -22 -41 -22 6 0 29 4 41 18 44 32 7 52 -12 52
-48z m123 16 c7 -29 -15 -54 -44 -49 -18 2 -25 10 -27 33 -7 54 57 68 71 16z
m-293 -11 c0 -22 -4 -40 -10 -40 -5 0 -10 18 -10 40 0 22 5 40 10 40 6 0 10
-18 10 -40z m85 20 c10 -32 -4 -60 -29 -60 -32 0 -50 24 -42 55 8 33 61 36 71
5z m6345 -20 c0 -5 -4 -10 -10 -10 -5 0 -10 5 -10 10 0 6 5 10 10 10 6 0 10
-4 10 -10z m-6209 -127 c5 -79 4 -93 -8 -93 -8 0 -13 12 -13 28 0 34 -7 43
-26 35 -8 -3 -14 -18 -14 -34 0 -16 -4 -29 -10 -29 -5 0 -10 18 -10 40 0 40 7
46 48 41 6 -1 12 3 12 9 0 11 20 14 21 3z m-349 -31 c-7 -2 -12 -17 -12 -33 0
-16 -4 -29 -10 -29 -5 0 -10 18 -10 39 0 30 4 40 18 43 19 4 32 -14 14 -20z
m72 12 c25 -24 19 -44 -11 -45 l-28 -2 28 -4 c32 -5 27 -23 -7 -23 -47 0 -62
48 -24 74 27 19 23 19 42 0z m184 -31 c4 -25 -20 -45 -50 -41 -17 2 -24 11
-26 33 -5 39 23 61 52 41 12 -7 22 -22 24 -33z m169 16 c-3 -11 -1 -21 4 -24
4 -3 5 -12 2 -21 -7 -18 -54 -15 -61 5 -3 9 2 11 19 7 l24 -6 -22 11 c-25 13
-29 29 -12 46 17 17 51 3 46 -18z m-262 -19 c0 -29 -4 -36 -22 -38 -13 -2 -23
-10 -23 -18 0 -8 -4 -14 -10 -14 -5 0 -10 25 -10 56 l0 55 33 -3 c29 -3 32 -6
32 -38z m305 -30 c0 -5 -4 -10 -10 -10 -5 0 -10 5 -10 10 0 6 5 10 10 10 6 0
10 -4 10 -10z m2225 -1370 c18 -15 19 -52 3 -68 -7 -7 -25 -12 -40 -12 -23 0
-28 -4 -28 -25 0 -16 -6 -25 -15 -25 -12 0 -15 15 -15 76 l0 77 40 -6 c23 -3
47 -11 55 -17z m520 9 c10 -15 -1 -23 -20 -15 -9 3 -13 10 -10 16 8 13 22 13
30 -1z m235 -4 c0 -8 -7 -15 -15 -15 -8 0 -15 7 -15 15 0 8 7 15 15 15 8 0 15
-7 15 -15z m-51 -49 c-12 -13 -12 -53 1 -61 18 -11 10 -25 -14 -25 -26 0 -30
7 -40 72 -5 27 -2 40 10 53 16 16 18 16 35 -7 11 -14 14 -27 8 -32z m-609 9
c0 -8 -7 -15 -15 -15 -11 0 -15 -11 -15 -40 0 -33 -3 -40 -20 -40 -18 0 -20 7
-20 55 l0 55 35 0 c24 0 35 -5 35 -15z m88 3 c7 -7 12 -22 12 -35 0 -19 -5
-23 -31 -23 -16 0 -28 -4 -25 -9 3 -4 17 -6 32 -3 20 4 25 1 22 -9 -11 -34
-85 -21 -94 16 -13 52 49 98 84 63z m102 -3 c17 -21 4 -32 -20 -17 -11 7 -20
8 -20 4 0 -5 12 -14 26 -20 36 -17 30 -56 -9 -60 -28 -3 -57 12 -57 29 0 5 7
9 15 9 8 0 15 -4 15 -10 0 -5 7 -10 15 -10 25 0 17 17 -10 24 -31 8 -42 31
-25 51 16 19 54 19 70 0z m110 -5 c10 -18 8 -20 -22 -18 -27 3 -33 -1 -33 -17
0 -16 6 -20 33 -17 34 2 40 -6 20 -26 -30 -30 -88 -2 -88 43 0 50 68 76 90 35z
m130 -35 c0 -48 -3 -55 -20 -55 -17 0 -19 6 -15 53 2 28 2 46 -1 40 -3 -7 -12
-13 -19 -13 -15 0 -25 -22 -25 -56 0 -15 -6 -24 -15 -24 -11 0 -15 13 -15 54
l0 53 55 2 55 1 0 -55z m106 30 c23 -35 7 -79 -29 -83 -19 -2 -27 -9 -27 -23
0 -10 -7 -19 -15 -19 -12 0 -15 15 -15 75 l0 75 35 0 c26 0 39 -6 51 -25z
m124 -30 c0 -42 -3 -55 -15 -55 -12 0 -15 13 -15 55 0 42 3 55 15 55 12 0 15
-13 15 -55z m102 38 c36 -32 15 -93 -31 -93 -34 0 -53 20 -53 55 0 51 46 72
84 38z m116 5 c18 -15 16 -98 -2 -98 -10 0 -16 13 -18 37 -4 52 -28 56 -28 4
0 -34 -3 -41 -20 -41 -18 0 -20 7 -20 54 l0 54 38 0 c20 0 43 -5 50 -10z
m-1056 -235 c23 -51 22 -52 48 20 6 17 17 27 30 27 18 0 20 -6 20 -75 0 -60
-3 -75 -15 -75 -11 0 -15 12 -16 43 l0 42 -17 -43 c-20 -51 -40 -52 -58 -2
l-12 35 -1 -37 c-1 -26 -6 -38 -15 -38 -10 0 -15 16 -18 53 -8 107 18 131 54
50z m1092 22 c12 -12 14 -27 9 -60 -4 -31 -2 -45 6 -45 6 0 11 -4 11 -10 0
-11 -50 -14 -50 -2 -1 4 -5 27 -10 52 -5 27 -4 52 1 62 12 22 14 22 33 3z
m-896 -27 c7 -7 12 -31 12 -55 l0 -43 -40 0 c-48 0 -71 28 -44 54 8 9 11 16 5
16 -15 0 -14 27 2 33 22 10 53 7 65 -5z m110 0 c18 -15 16 -98 -2 -98 -10 0
-16 13 -18 37 -4 52 -28 56 -28 4 0 -34 -3 -41 -20 -41 -18 0 -20 7 -20 54 l0
54 38 0 c20 0 43 -5 50 -10z m112 -7 c5 -11 10 -36 10 -55 0 -35 -1 -36 -38
-36 -66 0 -84 41 -29 66 29 14 30 15 5 9 -27 -5 -39 11 -21 28 14 15 63 7 73
-12z m120 -45 c0 -43 -5 -67 -14 -75 -19 -16 -68 -10 -74 7 -3 9 3 13 14 12
36 -4 49 2 19 9 -37 8 -54 48 -37 86 10 21 18 25 52 25 l40 0 0 -64z m106 39
c20 -31 11 -45 -29 -45 -22 0 -28 -3 -18 -9 7 -5 22 -6 33 -3 15 3 19 1 16 -9
-7 -20 -62 -23 -78 -4 -16 19 -16 60 0 80 19 23 57 18 76 -10z m172 -32 c2
-43 0 -53 -12 -53 -12 0 -16 11 -16 40 0 29 -4 40 -15 40 -11 0 -15 -11 -15
-40 0 -29 -4 -40 -15 -40 -11 0 -15 11 -15 40 0 29 -4 40 -15 40 -11 0 -15
-11 -15 -40 0 -29 -4 -40 -15 -40 -12 0 -15 13 -15 55 l0 55 73 -2 72 -3 3
-52z m100 45 c5 -7 12 -22 14 -33 2 -16 -4 -21 -32 -26 -34 -6 -24 -13 14 -9
11 1 17 -3 14 -12 -7 -19 -62 -22 -78 -3 -16 19 -16 60 0 80 15 18 54 20 68 3z
m120 -45 c2 -43 0 -53 -12 -53 -12 0 -16 11 -16 40 0 29 -4 40 -15 40 -11 0
-15 -11 -15 -40 0 -29 -4 -40 -15 -40 -11 0 -15 13 -15 54 l0 55 43 -2 42 -2
3 -52z m-578 -304 l0 -60 -32 3 c-30 3 -33 6 -33 38 0 29 4 36 23 38 14 2 22
10 22 23 0 10 5 19 10 19 6 0 10 -27 10 -61z m40 -5 c0 -41 -4 -54 -15 -54
-11 0 -15 12 -15 44 0 24 3 51 6 60 12 30 24 5 24 -50z m280 40 c0 -8 3 -13 8
-13 25 4 32 -4 32 -41 0 -22 -4 -40 -10 -40 -5 0 -10 16 -10 36 0 21 -4 33
-10 29 -5 -3 -10 -20 -10 -36 0 -28 -2 -30 -32 -27 -29 3 -33 7 -39 40 -6 38
7 76 18 51 7 -20 20 -15 26 8 6 23 27 17 27 -7z m-640 -4 c0 -15 7 -20 25 -20
18 0 25 5 25 20 0 11 5 20 10 20 6 0 10 -25 10 -55 0 -30 -4 -55 -10 -55 -5 0
-10 11 -10 25 0 20 -5 25 -25 25 -20 0 -25 -5 -25 -25 0 -14 -4 -25 -10 -25
-5 0 -10 25 -10 55 0 30 5 55 10 55 6 0 10 -9 10 -20z m136 -8 c7 -4 15 -24
18 -44 6 -38 6 -38 -29 -38 -36 0 -39 4 -35 50 2 22 15 40 30 40 3 0 10 -4 16
-8z m304 -32 c0 -15 -7 -20 -27 -21 l-28 -1 30 -8 c24 -5 27 -8 13 -14 -31
-14 -53 -2 -56 29 -5 36 21 59 49 44 11 -5 19 -19 19 -29z m74 9 c-4 -7 -10
-6 -19 1 -8 7 -16 7 -19 2 -3 -6 6 -13 20 -16 36 -9 28 -41 -10 -41 -16 0 -31
6 -34 13 -3 9 4 11 25 7 24 -5 25 -4 7 4 -32 14 -40 32 -19 47 20 15 60 1 49
-17z m240 15 c25 -24 19 -44 -11 -45 l-28 -2 28 -4 c32 -5 27 -23 -7 -23 -45
0 -59 37 -26 70 24 24 24 24 44 4z m-516 -36 c2 -28 -1 -38 -11 -38 -8 0 -14
10 -14 23 -1 41 -3 48 -13 42 -5 -3 -10 -19 -10 -36 0 -16 -4 -29 -10 -29 -5
0 -10 18 -10 41 0 39 1 40 33 37 29 -3 32 -6 35 -40z m682 -158 c0 -33 -4 -60
-10 -60 -6 0 -10 27 -10 60 0 33 4 60 10 60 6 0 10 -27 10 -60z m-770 40 c0
-5 -4 -10 -10 -10 -5 0 -10 5 -10 10 0 6 5 10 10 10 6 0 10 -4 10 -10z m500 0
c0 -5 -4 -10 -10 -10 -5 0 -10 5 -10 10 0 6 5 10 10 10 6 0 10 -4 10 -10z
m-539 -7 c5 -79 4 -93 -8 -93 -8 0 -13 12 -13 29 0 17 -5 33 -10 36 -8 5 -7
11 1 21 12 15 29 19 30 7z m450 0 c6 -68 3 -93 -11 -91 -15 3 -30 61 -22 86 4
13 32 17 33 5z m-701 -33 c0 -13 -17 -13 -25 0 -9 15 -25 2 -25 -22 0 -17 4
-19 26 -14 19 5 25 3 22 -6 -3 -7 -18 -13 -34 -13 -25 0 -29 4 -32 30 -5 36
21 59 49 44 11 -5 19 -14 19 -19z m47 5 c-10 -7 -17 -24 -17 -39 0 -14 -4 -26
-10 -26 -5 0 -10 18 -10 39 0 29 4 41 18 44 26 6 37 -5 19 -18z m83 -15 c0
-15 -7 -20 -27 -21 l-28 -1 30 -8 c24 -5 27 -8 13 -14 -31 -14 -53 -2 -56 29
-5 36 21 59 49 44 11 -5 19 -19 19 -29z m64 24 c9 -8 16 -29 16 -45 0 -26 -3
-29 -35 -29 -33 0 -34 1 -33 35 1 29 15 51 35 55 1 0 9 -7 17 -16z m184 -37
c-2 -25 -8 -33 -26 -35 -49 -7 -70 44 -30 72 32 23 60 4 56 -37z m82 2 c0 -47
-17 -52 -22 -6 -2 17 -7 32 -13 32 -5 0 -11 -15 -13 -32 -5 -46 -22 -41 -22 6
0 33 4 40 23 43 38 6 47 -2 47 -43z m117 26 c-10 -7 -17 -24 -17 -39 0 -14 -4
-26 -10 -26 -5 0 -10 18 -10 39 0 29 4 41 18 44 26 6 37 -5 19 -18z m83 -15
c0 -15 -7 -20 -27 -21 l-28 -1 30 -8 c24 -5 27 -8 13 -14 -31 -14 -53 -2 -56
29 -5 36 21 59 49 44 11 -5 19 -19 19 -29z m130 -11 c0 -22 -4 -39 -10 -39 -5
0 -10 16 -10 35 0 26 -3 33 -15 29 -9 -4 -15 -19 -15 -35 0 -16 -4 -29 -10
-29 -5 0 -10 18 -10 39 0 30 4 40 18 43 38 9 52 -3 52 -43z m231 27 c0 -6 2
-23 3 -38 1 -25 -2 -28 -30 -28 -18 0 -34 6 -37 14 -6 16 11 36 30 36 7 0 13
5 13 10 0 14 -13 13 -28 -2 -9 -9 -12 -8 -12 4 0 27 59 31 61 4z m-731 -26 c0
-22 -4 -40 -10 -40 -5 0 -10 18 -10 40 0 22 5 40 10 40 6 0 10 -18 10 -40z
m581 28 c0 -10 2 -10 6 0 7 19 21 14 29 -10 l7 -23 8 23 c5 12 13 22 20 22 6
0 8 -7 5 -16 -3 -9 -9 -27 -12 -40 -8 -32 -30 -30 -39 3 -3 15 -9 22 -13 16
-4 -6 -18 -13 -32 -16 -24 -4 -24 -4 3 -6 33 -1 27 -21 -7 -21 -35 0 -52 25
-38 55 12 27 61 36 63 13z m-381 -68 c0 -11 -4 -20 -10 -20 -5 0 -10 9 -10 20
0 11 5 20 10 20 6 0 10 -9 10 -20z m600 0 c0 -11 -4 -20 -10 -20 -5 0 -10 9
-10 20 0 11 5 20 10 20 6 0 10 -9 10 -20z m-860 -121 l0 -60 -32 3 c-30 3 -33
6 -33 38 0 29 4 36 23 38 14 2 22 10 22 23 0 10 5 19 10 19 6 0 10 -27 10 -61z
m290 1 c0 -59 0 -60 -28 -60 -15 0 -34 6 -41 13 -11 10 -14 10 -18 0 -3 -7
-13 -13 -24 -13 -10 0 -19 -7 -19 -15 0 -8 -7 -15 -15 -15 -11 0 -15 13 -15
54 0 50 2 54 26 59 15 2 31 -2 40 -10 13 -14 17 -14 32 0 9 8 23 12 30 10 7
-3 12 4 12 16 0 12 5 21 10 21 6 0 10 -27 10 -60z m520 50 c0 -5 -5 -10 -10
-10 -6 0 -10 -6 -9 -12 1 -7 1 -30 0 -50 -1 -44 -21 -52 -21 -9 0 17 -4 33
-10 36 -13 8 18 55 36 55 8 0 14 -4 14 -10z m-350 -4 c0 -3 -4 -8 -10 -11 -5
-3 -10 -1 -10 4 0 6 5 11 10 11 6 0 10 -2 10 -4z m-49 -18 c1 -7 0 -23 -1 -36
-1 -13 4 -30 10 -38 10 -11 9 -14 -9 -14 -17 0 -21 6 -21 35 0 19 -4 35 -10
35 -5 0 -10 -16 -10 -36 0 -34 -1 -35 -32 -32 -30 3 -33 6 -33 36 -1 37 20 55
47 41 12 -6 21 -5 30 6 16 18 28 19 29 3z m-581 -54 c0 -34 -1 -35 -32 -32
-30 3 -33 6 -33 36 -1 38 20 55 47 41 12 -7 18 -21 18 -45z m710 0 c0 -43 -18
-44 -22 -1 -2 17 -7 32 -13 32 -5 0 -11 -15 -13 -32 -5 -46 -22 -41 -22 6 0
33 4 40 23 43 32 6 47 -10 47 -48z m78 -8 c-3 -45 -6 -51 -27 -54 -13 -2 -28
1 -34 7 -8 8 -3 11 19 12 28 1 28 1 4 8 -18 5 -26 15 -28 36 -4 34 18 56 49
48 17 -5 20 -13 17 -57z m-704 38 c9 -25 7 -64 -4 -64 -5 0 -11 5 -11 10 -1 6
-3 15 -4 20 -1 6 -3 17 -4 26 -2 27 -21 4 -21 -27 0 -16 -4 -29 -10 -29 -5 0
-10 18 -10 40 0 37 2 40 29 40 17 0 31 -6 35 -16z m156 -14 c0 -20 5 -30 15
-30 10 0 15 10 15 30 0 17 5 30 10 30 6 0 10 -18 10 -41 0 -39 -1 -40 -32 -37
-30 3 -33 6 -36 41 -2 21 1 37 7 37 6 0 11 -13 11 -30z m390 -10 c0 -22 -4
-40 -10 -40 -11 0 -12 2 -16 48 -1 22 2 32 12 32 10 0 14 -12 14 -40z m286 15
c7 -29 -10 -55 -36 -55 -26 0 -43 26 -36 55 5 20 13 25 36 25 23 0 31 -5 36
-25z m-476 -135 c0 -5 -4 -10 -10 -10 -5 0 -10 5 -10 10 0 6 5 10 10 10 6 0
10 -4 10 -10z m170 0 c0 -5 -4 -10 -10 -10 -5 0 -10 5 -10 10 0 6 5 10 10 10
6 0 10 -4 10 -10z m-39 -7 c5 -79 4 -93 -8 -93 -8 0 -13 13 -13 35 0 44 -18
46 -22 3 -2 -25 -8 -34 -25 -36 -13 -2 -23 -10 -23 -18 0 -8 -4 -14 -10 -14
-5 0 -10 24 -10 54 0 44 3 55 19 59 10 2 25 0 34 -4 11 -6 20 -4 29 5 14 17
28 20 29 9z m-449 -31 c-7 -2 -12 -17 -12 -33 0 -16 -4 -29 -10 -29 -5 0 -10
18 -10 39 0 30 4 40 18 43 19 4 32 -14 14 -20z m78 6 c0 -5 10 -2 22 6 31 22
57 5 55 -36 l-2 -33 -60 -2 c-83 -2 -108 24 -65 67 19 19 50 18 50 -2z m160
-8 c0 -13 -17 -13 -25 0 -9 15 -25 2 -25 -22 0 -17 4 -19 26 -14 19 5 25 3 22
-6 -3 -7 -18 -13 -34 -13 -25 0 -29 4 -32 30 -5 36 21 59 49 44 11 -5 19 -14
19 -19z m338 -23 c-3 -28 -7 -32 -33 -32 -26 0 -30 4 -33 30 -5 37 21 59 50
44 14 -8 18 -19 16 -42z m82 2 c0 -21 -4 -39 -10 -39 -5 0 -10 14 -10 30 0 17
-4 30 -10 30 -5 0 -10 -13 -10 -30 0 -20 -5 -30 -15 -30 -11 0 -15 11 -15 39
0 33 4 40 23 43 38 6 47 -2 47 -43z m78 0 c1 -37 -1 -39 -29 -39 -18 0 -29 5
-29 14 0 9 8 13 23 10 l22 -5 -22 12 c-40 21 -25 63 18 52 12 -3 17 -16 17
-44z m-785 19 c8 -29 -9 -58 -33 -58 -11 0 -20 -7 -20 -15 0 -8 -4 -15 -10
-15 -5 0 -10 25 -10 55 l0 55 34 0 c26 0 35 -5 39 -22z m367 -18 c0 -22 -4
-40 -10 -40 -5 0 -10 16 -10 35 0 26 -3 33 -15 29 -9 -4 -15 -19 -15 -35 0
-16 -4 -29 -10 -29 -5 0 -10 18 -10 40 0 39 1 40 35 40 34 0 35 -1 35 -40z
m170 0 c0 -22 -4 -40 -10 -40 -5 0 -10 18 -10 40 0 22 5 40 10 40 6 0 10 -18
10 -40z m290 -30 c0 -5 -4 -10 -10 -10 -5 0 -10 5 -10 10 0 6 5 10 10 10 6 0
10 -4 10 -10z"/>
<path d="M6437 7134 c-9 -10 4 -34 18 -34 20 0 30 21 14 31 -17 10 -24 11 -32
3z"/>
<path d="M2138 7093 c7 -3 16 -2 19 1 4 3 -2 6 -13 5 -11 0 -14 -3 -6 -6z"/>
<path d="M6567 7063 c-4 -3 -7 -11 -7 -17 0 -6 5 -5 12 2 6 6 9 14 7 17 -3 3
-9 2 -12 -2z"/>
<path d="M1305 6860 c-3 -5 -1 -10 4 -10 6 0 11 5 11 10 0 6 -2 10 -4 10 -3 0
-8 -4 -11 -10z"/>
<path d="M1306 6821 c-4 -7 -5 -15 -2 -18 9 -9 19 4 14 18 -4 11 -6 11 -12 0z"/>
<path d="M1525 6860 c-3 -5 1 -10 10 -10 9 0 13 5 10 10 -3 6 -8 10 -10 10 -2
0 -7 -4 -10 -10z"/>
<path d="M1526 6821 c-4 -7 -5 -15 -2 -18 9 -9 19 4 14 18 -4 11 -6 11 -12 0z"/>
<path d="M1627 6848 c-6 -18 12 -50 24 -43 15 10 11 55 -5 55 -8 0 -16 -6 -19
-12z"/>
<path d="M1748 6853 c7 -3 16 -2 19 1 4 3 -2 6 -13 5 -11 0 -14 -3 -6 -6z"/>
<path d="M2028 6853 c7 -3 16 -2 19 1 4 3 -2 6 -13 5 -11 0 -14 -3 -6 -6z"/>
<path d="M6608 6853 c7 -3 16 -2 19 1 4 3 -2 6 -13 5 -11 0 -14 -3 -6 -6z"/>
<path d="M6611 6821 c-8 -6 -9 -11 -3 -15 6 -3 14 -1 17 5 9 14 2 20 -14 10z"/>
<path d="M6825 6821 c-6 -11 9 -23 19 -14 9 9 7 23 -3 23 -6 0 -12 -4 -16 -9z"/>
<path d="M6937 6853 c-13 -12 -7 -43 8 -43 9 0 15 9 15 25 0 24 -10 32 -23 18z"/>
<path d="M7338 6853 c7 -3 16 -2 19 1 4 3 -2 6 -13 5 -11 0 -14 -3 -6 -6z"/>
<path d="M7338 6813 c6 -2 18 -2 25 0 6 3 1 5 -13 5 -14 0 -19 -2 -12 -5z"/>
<path d="M3123 6292 l-163 -2 -2 -148 c-1 -150 0 -194 8 -201 3 -4 161 -5 194
-1 42 5 -45 16 -107 14 -60 -2 -72 1 -76 15 -7 28 -9 205 -2 222 9 23 315 28
334 5 7 -8 10 -20 7 -25 -8 -12 4 -62 13 -57 6 4 6 164 0 170 -10 9 -58 11
-206 8z m191 -29 c13 -32 -13 -38 -175 -41 -138 -3 -160 -1 -165 12 -15 38 10
44 176 45 137 0 159 -2 164 -16z"/>
<path d="M3114 6162 c-18 -12 -26 -50 -14 -71 8 -15 7 -22 -3 -28 -23 -13 -40
-54 -28 -66 7 -7 12 -2 17 17 8 35 37 49 83 41 27 -5 33 -4 25 5 -9 9 -9 19 0
42 10 26 8 32 -13 49 -24 20 -48 24 -67 11z m55 -26 c23 -28 -22 -69 -48 -43
-12 12 -15 40 -4 50 11 12 40 8 52 -7z"/>
<path d="M3253 6043 c-42 -14 -43 -16 -43 -57 0 -66 18 -103 64 -136 l43 -29
34 21 c19 11 41 30 49 42 15 21 30 111 23 133 -5 13 -86 44 -112 42 -9 0 -35
-7 -58 -16z m115 -14 c37 -13 45 -32 36 -85 -6 -43 -25 -69 -66 -90 -23 -12
-29 -12 -42 1 -8 8 -19 15 -24 15 -16 0 -42 66 -42 108 0 35 3 40 33 50 43 14
68 14 105 1z"/>
<path d="M3335 5965 c-22 -26 -32 -31 -42 -23 -20 16 -26 3 -8 -16 23 -23 29
-21 60 24 35 51 28 61 -10 15z"/>
<path d="M5240 6281 c-6 -12 -10 -98 -10 -210 0 -178 1 -191 19 -201 26 -13
261 -13 261 0 0 6 -50 10 -130 10 l-130 0 0 200 0 200 150 0 150 0 0 -130 c0
-165 -18 -175 -22 -12 l-3 117 -125 0 -125 0 0 -155 0 -155 103 -3 c65 -2 102
1 102 8 0 6 -36 10 -95 10 l-95 0 0 140 0 140 110 0 110 0 0 -105 c0 -64 -5
-113 -12 -124 -10 -16 -7 -25 20 -55 18 -20 32 -45 32 -55 0 -21 36 -71 51
-71 6 0 1 13 -10 29 -12 16 -21 37 -21 46 0 10 -13 33 -30 52 -30 34 -38 53
-22 53 5 0 17 -9 27 -20 10 -11 25 -20 34 -20 12 0 12 3 3 12 -7 7 -12 32 -12
58 l1 45 29 -33 c26 -28 30 -40 30 -88 0 -48 5 -62 31 -95 17 -21 35 -39 41
-39 5 0 -4 18 -21 39 -26 33 -31 47 -31 95 0 52 -3 60 -40 100 l-40 43 0 86
c0 75 -3 88 -19 97 -11 5 -82 10 -160 10 -128 0 -141 -2 -151 -19z"/>
<path d="M5373 6201 c-3 -11 -13 -21 -24 -24 -11 -3 -19 -14 -19 -27 0 -13 8
-24 19 -27 11 -3 21 -13 24 -24 3 -11 14 -19 27 -19 13 0 24 8 27 19 3 11 13
21 24 24 11 3 19 14 19 27 0 13 -8 24 -19 27 -11 3 -21 13 -24 24 -3 11 -14
19 -27 19 -13 0 -24 -8 -27 -19z m40 -21 c3 -11 12 -20 21 -20 9 0 16 -4 16
-10 0 -5 -7 -10 -16 -10 -9 0 -18 -9 -21 -20 -3 -11 -9 -20 -13 -20 -4 0 -10
9 -13 20 -3 11 -12 20 -21 20 -23 0 -20 17 4 23 11 3 20 12 20 21 0 23 17 20
23 -4z"/>
<path d="M5340 6030 c0 -6 27 -10 60 -10 33 0 60 4 60 10 0 6 -27 10 -60 10
-33 0 -60 -4 -60 -10z"/>
<path d="M5340 5990 c0 -6 27 -10 60 -10 33 0 60 4 60 10 0 6 -27 10 -60 10
-33 0 -60 -4 -60 -10z"/>
<path d="M5380 5910 c0 -5 9 -10 20 -10 11 0 20 5 20 10 0 6 -9 10 -20 10 -11
0 -20 -4 -20 -10z"/>
<path d="M1354 6546 c-10 -26 0 -51 21 -51 16 0 20 7 20 30 0 33 -30 49 -41
21z"/>
<path d="M1525 6530 c-3 -5 1 -10 10 -10 9 0 13 5 10 10 -3 6 -8 10 -10 10 -2
0 -7 -4 -10 -10z"/>
<path d="M1660 6530 c0 -5 5 -10 11 -10 5 0 7 5 4 10 -3 6 -8 10 -11 10 -2 0
-4 -4 -4 -10z"/>
<path d="M1735 6530 c-3 -5 1 -10 10 -10 9 0 13 5 10 10 -3 6 -8 10 -10 10 -2
0 -7 -4 -10 -10z"/>
<path d="M1815 6530 c-3 -5 1 -10 10 -10 9 0 13 5 10 10 -3 6 -8 10 -10 10 -2
0 -7 -4 -10 -10z"/>
<path d="M2175 6530 c-3 -5 -1 -10 4 -10 6 0 11 5 11 10 0 6 -2 10 -4 10 -3 0
-8 -4 -11 -10z"/>
<path d="M6545 6530 c-3 -5 1 -10 9 -10 9 0 16 5 16 10 0 6 -4 10 -9 10 -6 0
-13 -4 -16 -10z"/>
<path d="M6715 6530 c-3 -5 1 -10 10 -10 9 0 13 5 10 10 -3 6 -8 10 -10 10 -2
0 -7 -4 -10 -10z"/>
<path d="M6720 6500 c-13 -8 -12 -10 3 -10 9 0 17 5 17 10 0 12 -1 12 -20 0z"/>
<path d="M6885 6530 c-3 -5 1 -10 10 -10 9 0 13 5 10 10 -3 6 -8 10 -10 10 -2
0 -7 -4 -10 -10z"/>
<path d="M6792 6513 c5 -25 28 -28 28 -4 0 12 -6 21 -16 21 -9 0 -14 -7 -12
-17z"/>
<path d="M7076 6533 c-12 -12 -6 -43 9 -43 8 0 15 9 15 19 0 21 -13 34 -24 24z"/>
<path d="M7155 6530 c-3 -5 1 -10 9 -10 9 0 16 5 16 10 0 6 -4 10 -9 10 -6 0
-13 -4 -16 -10z"/>
<path d="M7165 6500 c-3 -5 -1 -10 4 -10 6 0 11 5 11 10 0 6 -2 10 -4 10 -3 0
-8 -4 -11 -10z"/>
<path d="M6960 6530 c0 -5 5 -10 11 -10 5 0 7 5 4 10 -3 6 -8 10 -11 10 -2 0
-4 -4 -4 -10z"/>
<path d="M7325 6530 c-3 -5 1 -10 10 -10 9 0 13 5 10 10 -3 6 -8 10 -10 10 -2
0 -7 -4 -10 -10z"/>
<path d="M2216 6353 c-12 -12 -6 -43 9 -43 8 0 15 9 15 19 0 21 -13 34 -24 24z"/>
<path d="M6766 6353 c-12 -12 -6 -43 9 -43 8 0 15 9 15 19 0 21 -13 34 -24 24z"/>
<path d="M7576 6353 c-12 -12 -6 -43 9 -43 8 0 15 9 15 19 0 21 -13 34 -24 24z"/>
<path d="M1055 6350 c-3 -5 1 -10 10 -10 9 0 13 5 10 10 -3 6 -8 10 -10 10 -2
0 -7 -4 -10 -10z"/>
<path d="M1060 6320 c-13 -8 -12 -10 3 -10 9 0 17 5 17 10 0 12 -1 12 -20 0z"/>
<path d="M1355 6350 c-3 -5 1 -10 10 -10 9 0 13 5 10 10 -3 6 -8 10 -10 10 -2
0 -7 -4 -10 -10z"/>
<path d="M1675 6350 c-3 -5 1 -10 10 -10 9 0 13 5 10 10 -3 6 -8 10 -10 10 -2
0 -7 -4 -10 -10z"/>
<path d="M1680 6320 c-13 -8 -12 -10 3 -10 9 0 17 5 17 10 0 12 -1 12 -20 0z"/>
<path d="M1847 6354 c-4 -4 -7 -16 -7 -26 0 -20 25 -25 36 -7 8 13 -19 43 -29
33z"/>
<path d="M2055 6320 c-3 -5 -1 -10 4 -10 6 0 11 5 11 10 0 6 -2 10 -4 10 -3 0
-8 -4 -11 -10z"/>
<path d="M6475 6350 c-3 -5 -1 -10 4 -10 6 0 11 5 11 10 0 6 -2 10 -4 10 -3 0
-8 -4 -11 -10z"/>
<path d="M6549 6344 c-16 -20 2 -38 30 -29 26 8 27 17 2 32 -16 10 -22 9 -32
-3z"/>
<path d="M6631 6350 c-17 -10 -7 -40 14 -40 8 0 15 9 15 19 0 24 -12 32 -29
21z"/>
<path d="M6850 6350 c0 -5 5 -10 11 -10 5 0 7 5 4 10 -3 6 -8 10 -11 10 -2 0
-4 -4 -4 -10z"/>
<path d="M7265 6350 c-3 -5 1 -10 10 -10 9 0 13 5 10 10 -3 6 -8 10 -10 10 -2
0 -7 -4 -10 -10z"/>
<path d="M7405 6350 c-3 -5 1 -10 10 -10 9 0 13 5 10 10 -3 6 -8 10 -10 10 -2
0 -7 -4 -10 -10z"/>
<path d="M7408 6313 c7 -3 16 -2 19 1 4 3 -2 6 -13 5 -11 0 -14 -3 -6 -6z"/>
<path d="M7100 6350 c0 -5 5 -10 11 -10 5 0 7 5 4 10 -3 6 -8 10 -11 10 -2 0
-4 -4 -4 -10z"/>
<path d="M1846 6173 c-9 -10 -7 -43 3 -43 15 0 41 12 41 19 0 10 -37 30 -44
24z"/>
<path d="M2000 6165 c-14 -16 -5 -35 16 -35 15 0 20 35 5 44 -5 3 -14 -1 -21
-9z"/>
<path d="M6420 6170 c0 -5 5 -10 11 -10 5 0 7 5 4 10 -3 6 -8 10 -11 10 -2 0
-4 -4 -4 -10z"/>
<path d="M1755 6170 c-3 -5 1 -10 9 -10 9 0 16 5 16 10 0 6 -4 10 -9 10 -6 0
-13 -4 -16 -10z"/>
<path d="M1765 6140 c-3 -5 -1 -10 4 -10 6 0 11 5 11 10 0 6 -2 10 -4 10 -3 0
-8 -4 -11 -10z"/>
<path d="M6498 6163 c7 -3 16 -2 19 1 4 3 -2 6 -13 5 -11 0 -14 -3 -6 -6z"/>
<path d="M6575 6170 c-3 -5 1 -10 10 -10 9 0 13 5 10 10 -3 6 -8 10 -10 10 -2
0 -7 -4 -10 -10z"/>
<path d="M6580 6140 c-13 -8 -12 -10 3 -10 9 0 17 5 17 10 0 12 -1 12 -20 0z"/>
<path d="M1505 5990 c-3 -5 1 -10 10 -10 9 0 13 5 10 10 -3 6 -8 10 -10 10 -2
0 -7 -4 -10 -10z"/>
<path d="M1510 5960 c-13 -8 -12 -10 3 -10 9 0 17 5 17 10 0 12 -1 12 -20 0z"/>
<path d="M1675 5960 c-3 -5 -1 -10 4 -10 6 0 11 5 11 10 0 6 -2 10 -4 10 -3 0
-8 -4 -11 -10z"/>
<path d="M1835 5990 c-3 -5 1 -10 10 -10 9 0 13 5 10 10 -3 6 -8 10 -10 10 -2
0 -7 -4 -10 -10z"/>
<path d="M2058 5983 c7 -3 16 -2 19 1 4 3 -2 6 -13 5 -11 0 -14 -3 -6 -6z"/>
<path d="M2063 5953 c9 -2 23 -2 30 0 6 3 -1 5 -18 5 -16 0 -22 -2 -12 -5z"/>
<path d="M6806 5993 c-12 -12 -6 -43 9 -43 8 0 15 9 15 19 0 21 -13 34 -24 24z"/>
<path d="M6965 5990 c-3 -5 1 -10 9 -10 9 0 16 5 16 10 0 6 -4 10 -9 10 -6 0
-13 -4 -16 -10z"/>
<path d="M7215 5990 c-3 -5 -1 -10 4 -10 6 0 11 5 11 10 0 6 -2 10 -4 10 -3 0
-8 -4 -11 -10z"/>
<path d="M1756 5993 c-12 -12 -6 -43 9 -43 8 0 15 9 15 19 0 21 -13 34 -24 24z"/>
<path d="M7290 5990 c0 -5 5 -10 11 -10 5 0 7 5 4 10 -3 6 -8 10 -11 10 -2 0
-4 -4 -4 -10z"/>
<path d="M3966 4882 c-3 -6 -1 -14 5 -17 15 -10 25 3 12 16 -7 7 -13 7 -17 1z"/>
<path d="M4940 4864 c0 -20 -4 -24 -19 -19 -23 7 -51 -18 -51 -46 0 -41 18
-58 60 -57 l40 0 0 74 c0 59 -3 74 -15 74 -9 0 -15 -10 -15 -26z m-5 -70 c0
-19 -5 -29 -15 -29 -16 0 -25 28 -16 51 10 25 31 10 31 -22z"/>
<path d="M3660 4810 c0 -56 3 -70 15 -70 9 0 15 9 15 24 0 18 7 25 29 29 37 8
56 39 41 67 -8 15 -21 20 -55 20 l-45 0 0 -70z m77 34 c6 -16 -12 -34 -34 -34
-7 0 -13 11 -13 25 0 18 5 25 20 25 11 0 23 -7 27 -16z"/>
<path d="M4350 4810 c0 -56 3 -70 15 -70 9 0 15 9 15 24 0 38 18 41 38 7 9
-17 23 -31 30 -31 15 0 15 6 1 32 -8 15 -8 27 0 45 18 40 -1 63 -54 63 l-45 0
0 -70z m75 30 c0 -8 -10 -16 -22 -18 -18 -3 -23 2 -23 18 0 16 5 21 23 18 12
-2 22 -10 22 -18z"/>
<path d="M3892 4850 c-7 -11 -8 -20 -3 -20 6 0 11 -19 13 -42 2 -36 7 -44 26
-46 12 -2 22 1 22 7 0 6 -5 11 -11 11 -6 0 -10 17 -9 43 2 23 2 48 1 55 -2 19
-25 14 -39 -8z"/>
<path d="M4232 4850 c-7 -12 -8 -20 -2 -20 5 0 10 -18 10 -40 0 -43 21 -63 43
-41 8 8 8 11 -2 11 -9 0 -12 13 -11 43 2 23 2 48 1 55 -2 19 -25 14 -39 -8z"/>
<path d="M3803 4843 c-24 -9 -13 -25 12 -19 18 5 25 2 25 -9 0 -9 -9 -15 -24
-15 -27 0 -42 -26 -25 -46 6 -7 26 -13 45 -12 33 1 34 2 34 44 0 52 -26 74
-67 57z m37 -68 c0 -8 -7 -15 -15 -15 -16 0 -20 12 -8 23 11 12 23 8 23 -8z"/>
<path d="M3967 4843 c-4 -3 -7 -28 -7 -55 0 -36 4 -48 15 -48 12 0 15 13 15
55 0 51 -7 65 -23 48z"/>
<path d="M4027 4832 c-35 -38 -8 -96 41 -90 35 4 41 28 6 25 -15 -1 -29 4 -31
11 -3 8 6 12 26 12 24 0 31 4 31 20 0 18 -26 40 -48 40 -5 0 -16 -8 -25 -18z
m51 -20 c2 -7 -6 -12 -17 -12 -21 0 -27 11 -14 24 9 9 26 2 31 -12z"/>
<path d="M4120 4793 c0 -39 4 -53 14 -53 10 0 16 13 18 42 4 59 28 63 28 4 0
-34 4 -46 15 -46 11 0 15 12 15 44 0 50 -12 63 -57 63 l-33 0 0 -54z"/>
<path d="M4498 4839 c-22 -12 -24 -71 -4 -89 18 -14 58 -10 64 8 2 7 -4 11
-19 10 -12 -2 -24 3 -26 10 -3 8 6 12 26 12 35 0 41 19 15 44 -18 18 -32 20
-56 5z m42 -30 c0 -5 -7 -9 -15 -9 -15 0 -20 12 -9 23 8 8 24 -1 24 -14z"/>
<path d="M4608 4839 c-22 -13 -24 -72 -3 -89 19 -15 65 -5 65 15 0 18 -12 19
-27 4 -24 -24 -44 18 -24 50 8 12 12 13 25 1 21 -16 33 -5 16 15 -14 17 -28
19 -52 4z"/>
<path d="M4708 4839 c-21 -12 -24 -69 -6 -87 17 -17 53 -15 68 3 18 22 15 66
-6 82 -21 15 -33 16 -56 2z m50 -53 c-4 -28 -35 -33 -43 -6 -9 29 12 55 32 38
8 -6 13 -21 11 -32z"/>
<path d="M4810 4794 c0 -30 5 -54 10 -54 6 0 10 13 10 29 0 16 7 36 15 45 22
21 19 31 -10 32 -24 2 -25 -1 -25 -52z"/>
<path d="M3743 4643 c-9 -3 -13 -28 -13 -74 0 -55 3 -69 15 -69 11 0 15 12 16
48 l0 47 18 -45 c10 -24 23 -46 28 -47 5 -2 16 15 23 37 19 57 31 60 24 6 -6
-38 -4 -46 10 -46 13 0 16 12 16 69 0 39 -4 72 -9 76 -14 8 -39 -21 -46 -55
-10 -45 -23 -45 -36 0 -13 44 -27 60 -46 53z"/>
<path d="M4855 4620 c3 -5 1 -10 -5 -10 -8 0 -9 -7 -5 -17 4 -10 8 -30 10 -46
2 -15 7 -32 10 -37 8 -13 35 -13 35 0 0 6 -4 10 -10 10 -14 0 -13 53 1 67 9 9
8 16 -4 27 -17 18 -42 22 -32 6z"/>
<path d="M3923 4603 c-24 -9 -13 -25 12 -19 18 5 25 2 25 -9 0 -9 -9 -15 -24
-15 -27 0 -42 -26 -25 -46 6 -7 26 -13 45 -12 33 1 34 2 34 44 0 52 -26 74
-67 57z m37 -68 c0 -8 -7 -15 -15 -15 -16 0 -20 12 -8 23 11 12 23 8 23 -8z"/>
<path d="M4015 4602 c-3 -3 -5 -27 -5 -54 0 -35 4 -48 14 -48 10 0 16 14 18
43 2 29 8 42 18 42 10 0 16 -13 18 -42 2 -24 7 -43 13 -43 11 0 13 99 2 101
-35 5 -73 6 -78 1z"/>
<path d="M4143 4603 c-24 -9 -13 -25 12 -19 18 5 25 2 25 -9 0 -9 -9 -15 -24
-15 -27 0 -42 -26 -25 -46 6 -7 26 -13 45 -12 33 1 34 2 34 44 0 52 -26 74
-67 57z m37 -68 c0 -8 -7 -15 -15 -15 -16 0 -20 12 -8 23 11 12 23 8 23 -8z"/>
<path d="M4245 4594 c-33 -33 -7 -102 34 -91 15 3 21 1 18 -6 -2 -7 -16 -11
-31 -10 -33 2 -30 -20 3 -25 38 -6 51 15 51 83 l0 62 -30 1 c-16 0 -37 -6 -45
-14z m51 -30 c7 -27 -7 -50 -25 -40 -12 8 -15 49 -4 59 13 13 23 7 29 -19z"/>
<path d="M4360 4590 c-24 -24 -25 -38 -4 -68 11 -16 24 -22 42 -20 34 4 42 28
8 25 -37 -3 -36 18 2 21 36 4 38 8 16 40 -19 27 -38 28 -64 2z m45 -11 c10
-15 -1 -23 -20 -15 -9 3 -13 10 -10 16 8 13 22 13 30 -1z"/>
<path d="M4460 4553 c0 -63 15 -71 23 -12 3 22 8 43 10 46 13 13 27 -12 27
-48 0 -52 14 -50 26 4 5 23 14 42 19 42 6 0 11 -19 13 -42 4 -57 32 -61 32 -5
0 59 -11 67 -85 68 l-65 0 0 -53z"/>
<path d="M4648 4599 c-22 -12 -24 -71 -4 -89 18 -14 58 -10 64 8 2 7 -4 11
-19 10 -12 -2 -24 3 -26 10 -3 8 6 12 26 12 35 0 41 19 15 44 -18 18 -32 20
-56 5z m40 -27 c2 -7 -3 -12 -12 -12 -9 0 -16 7 -16 16 0 17 22 14 28 -4z"/>
<path d="M4740 4553 c0 -29 5 -53 10 -53 6 0 10 15 10 33 0 17 4 38 9 46 15
23 31 2 31 -40 0 -28 4 -39 15 -39 17 0 20 45 6 83 -8 21 -16 25 -45 24 l-36
-1 0 -53z"/>
<path d="M3997 4393 c-19 -18 -5 -50 28 -66 19 -9 35 -21 35 -27 0 -17 -29
-23 -45 -10 -20 17 -32 5 -15 -15 16 -19 64 -20 80 0 19 23 8 49 -28 64 -36
16 -43 41 -12 41 11 0 20 -4 20 -10 0 -5 7 -10 15 -10 18 0 19 12 3 28 -13 13
-70 17 -81 5z"/>
<path d="M4312 4370 c-7 -11 -8 -20 -3 -20 6 0 11 -19 13 -42 3 -37 6 -43 28
-46 21 -3 22 -2 11 12 -7 8 -12 32 -11 53 2 21 2 44 1 51 -2 19 -25 14 -39 -8z"/>
<path d="M4107 4364 c-3 -3 1 -24 9 -46 16 -47 18 -78 4 -78 -5 0 -10 -4 -10
-10 0 -5 7 -10 16 -10 16 0 50 66 60 119 7 32 -12 46 -21 16 -16 -49 -18 -50
-28 -17 -10 31 -17 38 -30 26z"/>
<path d="M4223 4363 c-22 -8 -14 -43 12 -55 14 -6 25 -15 25 -21 0 -5 -11 -6
-25 -3 -30 8 -34 -10 -5 -19 56 -18 85 37 30 56 -36 13 -30 31 8 23 26 -5 26
-5 8 10 -20 16 -31 18 -53 9z"/>
<path d="M4396 4354 c-41 -40 -5 -103 51 -89 29 7 23 19 -9 20 -12 0 -23 6
-25 13 -3 8 6 12 26 12 24 0 31 4 31 20 0 18 -26 40 -49 40 -5 0 -17 -7 -25
-16z m44 -25 c0 -5 -7 -9 -15 -9 -15 0 -20 12 -9 23 8 8 24 -1 24 -14z"/>
<path d="M4490 4313 c0 -39 4 -53 14 -53 10 0 16 14 18 43 2 23 8 42 13 42 6
0 11 -19 13 -42 2 -29 8 -43 17 -43 9 0 15 14 17 43 2 23 8 42 13 42 6 0 11
-19 13 -42 2 -29 8 -43 18 -43 18 0 20 85 2 97 -7 4 -41 8 -75 9 l-63 0 0 -53z"/>
<path d="M2355 4137 c-3 -7 -4 -114 -3 -237 l3 -225 235 0 235 0 0 235 0 235
-233 3 c-183 2 -234 0 -237 -11z m453 -224 l-3 -218 -217 -3 -218 -2 0 220 0
220 220 0 220 0 -2 -217z"/>
<path d="M2410 4010 l0 -80 70 0 70 0 0 80 0 80 -70 0 -70 0 0 -80z m120 0 l0
-60 -50 0 -50 0 0 60 0 60 50 0 50 0 0 -60z"/>
<path d="M2450 4040 c0 -5 14 -10 30 -10 17 0 30 5 30 10 0 6 -13 10 -30 10
-16 0 -30 -4 -30 -10z"/>
<path d="M2450 4000 c0 -5 9 -10 20 -10 11 0 20 5 20 10 0 6 -9 10 -20 10 -11
0 -20 -4 -20 -10z"/>
<path d="M2631 4064 c-28 -36 -27 -79 4 -109 51 -52 135 -15 135 59 0 69 -97
104 -139 50z m52 -36 c-6 -30 -5 -30 30 -26 31 3 34 2 26 -14 -16 -29 -45 -40
-73 -27 -29 14 -39 44 -24 73 24 46 51 42 41 -6z m57 12 c0 -4 -7 -10 -15 -14
-10 -4 -15 1 -15 14 0 13 5 18 15 14 8 -4 15 -10 15 -14z"/>
<path d="M2630 3810 l0 -80 70 0 70 0 0 80 0 80 -70 0 -70 0 0 -80z m120 0 l0
-60 -50 0 -50 0 0 60 0 60 50 0 50 0 0 -60z"/>
<path d="M2670 3820 c0 -5 14 -10 30 -10 17 0 30 5 30 10 0 6 -13 10 -30 10
-16 0 -30 -4 -30 -10z"/>
<path d="M2670 3780 c0 -5 9 -10 20 -10 11 0 20 5 20 10 0 6 -9 10 -20 10 -11
0 -20 -4 -20 -10z"/>
<path d="M2534 3835 c-22 -29 -29 -33 -45 -24 -16 8 -25 4 -49 -23 -30 -32
-39 -58 -21 -58 5 0 19 13 31 30 19 26 24 29 43 19 18 -10 25 -7 54 27 32 39
42 64 24 64 -6 0 -22 -16 -37 -35z"/>
<path d="M5930 4090 c0 -27 5 -50 10 -50 6 0 10 9 10 20 0 18 7 20 76 20 47 0
73 4 69 10 -3 6 -37 10 -76 10 -62 0 -69 2 -69 20 0 11 -4 20 -10 20 -5 0 -10
-22 -10 -50z"/>
<path d="M6153 4085 c0 -33 2 -47 4 -32 4 26 8 28 41 25 36 -3 37 -4 40 -45
l3 -43 -190 0 -191 0 0 38 c0 21 5 43 12 50 9 9 8 12 -4 12 -25 0 -28 -21 -28
-191 l0 -159 26 -10 c33 -13 134 -13 134 0 0 6 -30 10 -70 10 l-70 0 0 115 0
115 198 2 197 3 3 37 c5 53 -12 77 -58 84 -29 5 -40 12 -43 28 -2 11 -4 -6 -4
-39z"/>
<path d="M5947 3933 c-4 -3 -7 -14 -7 -24 0 -11 -9 -19 -22 -21 -18 -2 -24
-11 -26 -35 -3 -29 0 -33 22 -33 18 0 25 -6 28 -22 2 -18 11 -24 36 -26 29 -3
32 -1 32 22 0 21 5 26 25 26 22 0 25 4 25 35 0 28 -4 35 -20 35 -13 0 -24 10
-30 25 -9 24 -47 35 -63 18z m51 -41 c2 -14 10 -22 23 -22 10 0 19 -7 19 -15
0 -8 -9 -15 -20 -15 -15 0 -20 -7 -20 -25 0 -33 -37 -35 -42 -2 -2 14 -11 23
-25 25 -13 2 -23 10 -23 17 0 7 10 15 23 17 14 2 23 11 25 26 4 30 36 25 40
-6z"/>
<path d="M6210 3905 c-16 -17 -21 -31 -17 -47 9 -34 -37 -79 -73 -72 -21 5
-32 0 -48 -21 -11 -14 -18 -33 -15 -41 7 -18 55 -44 81 -44 49 0 162 121 162
175 0 24 -39 75 -58 75 -5 0 -19 -11 -32 -25z m52 -12 c36 -32 23 -72 -42
-135 -66 -65 -102 -74 -136 -37 -19 21 -18 21 5 40 18 15 27 16 43 8 16 -9 25
-6 45 13 36 33 46 55 34 76 -7 12 -5 22 6 34 20 22 22 22 45 1z"/>
<path d="M1100 4301 c0 -16 6 -21 26 -21 33 0 30 33 -4 38 -17 3 -22 -2 -22
-17z"/>
<path d="M1236 4283 c-11 -11 -6 -23 9 -23 8 0 15 4 15 9 0 13 -16 22 -24 14z"/>
<path d="M1347 4284 c-11 -11 -9 -64 3 -64 18 0 30 36 17 54 -7 9 -16 14 -20
10z"/>
<path d="M1450 4269 c-10 -17 -9 -24 4 -38 15 -14 18 -14 26 -1 14 21 12 36
-4 49 -12 10 -17 8 -26 -10z"/>
<path d="M7215 4050 c3 -5 8 -10 11 -10 2 0 4 5 4 10 0 6 -5 10 -11 10 -5 0
-7 -4 -4 -10z"/>
<path d="M7680 4050 c0 -5 5 -10 10 -10 6 0 10 5 10 10 0 6 -4 10 -10 10 -5 0
-10 -4 -10 -10z"/>
<path d="M7850 4075 c0 -16 6 -25 15 -25 9 0 15 9 15 25 0 16 -6 25 -15 25 -9
0 -15 -9 -15 -25z"/>
<path d="M695 4001 c-3 -5 -1 -12 5 -16 12 -7 30 2 30 16 0 12 -27 12 -35 0z"/>
<path d="M915 4001 c-3 -5 -1 -12 5 -16 12 -7 30 2 30 16 0 12 -27 12 -35 0z"/>
<path d="M1031 4036 c-15 -18 -5 -59 12 -53 15 5 22 46 9 59 -5 5 -14 3 -21
-6z"/>
<path d="M1146 4043 c-11 -11 -6 -23 9 -23 8 0 15 4 15 9 0 13 -16 22 -24 14z"/>
<path d="M1426 4043 c-11 -11 -6 -23 8 -23 8 0 17 4 20 9 7 10 -19 23 -28 14z"/>
<path d="M7330 3740 c0 -5 5 -10 11 -10 5 0 7 5 4 10 -3 6 -8 10 -11 10 -2 0
-4 -4 -4 -10z"/>
<path d="M7602 3723 c5 -25 28 -28 28 -4 0 12 -6 21 -16 21 -9 0 -14 -7 -12
-17z"/>
<path d="M1490 3696 c0 -14 5 -28 10 -31 6 -4 10 7 10 24 0 17 -4 31 -10 31
-5 0 -10 -11 -10 -24z"/>
<path d="M7095 3740 c-3 -5 1 -10 10 -10 9 0 13 5 10 10 -3 6 -8 10 -10 10 -2
0 -7 -4 -10 -10z"/>
<path d="M7445 3740 c-3 -5 -1 -10 4 -10 6 0 11 5 11 10 0 6 -2 10 -4 10 -3 0
-8 -4 -11 -10z"/>
<path d="M7865 3710 c-3 -5 -1 -10 4 -10 6 0 11 5 11 10 0 6 -2 10 -4 10 -3 0
-8 -4 -11 -10z"/>
<path d="M8025 3740 c-3 -5 1 -10 10 -10 9 0 13 5 10 10 -3 6 -8 10 -10 10 -2
0 -7 -4 -10 -10z"/>
<path d="M8030 3710 c-13 -8 -12 -10 3 -10 9 0 17 5 17 10 0 12 -1 12 -20 0z"/>
<path d="M8195 3740 c-3 -5 -1 -10 4 -10 6 0 11 5 11 10 0 6 -2 10 -4 10 -3 0
-8 -4 -11 -10z"/>
<path d="M8102 3723 c5 -25 28 -28 28 -4 0 12 -6 21 -16 21 -9 0 -14 -7 -12
-17z"/>
<path d="M8270 3740 c0 -5 5 -10 11 -10 5 0 7 5 4 10 -3 6 -8 10 -11 10 -2 0
-4 -4 -4 -10z"/>
<path d="M965 3710 c-3 -5 1 -10 10 -10 9 0 13 5 10 10 -3 6 -8 10 -10 10 -2
0 -7 -4 -10 -10z"/>
<path d="M970 3680 c-13 -8 -12 -10 3 -10 9 0 17 5 17 10 0 12 -1 12 -20 0z"/>
<path d="M1125 3710 c-3 -5 1 -10 10 -10 9 0 13 5 10 10 -3 6 -8 10 -10 10 -2
0 -7 -4 -10 -10z"/>
<path d="M1130 3680 c-13 -8 -12 -10 3 -10 9 0 17 5 17 10 0 12 -1 12 -20 0z"/>
<path d="M1210 3690 c0 -11 7 -20 15 -20 8 0 15 9 15 20 0 11 -7 20 -15 20 -8
0 -15 -9 -15 -20z"/>
<path d="M1295 3710 c-3 -5 1 -10 10 -10 9 0 13 5 10 10 -3 6 -8 10 -10 10 -2
0 -7 -4 -10 -10z"/>
<path d="M1625 3710 c-3 -5 -1 -10 4 -10 6 0 11 5 11 10 0 6 -2 10 -4 10 -3 0
-8 -4 -11 -10z"/>
<path d="M6966 3563 c-12 -12 -6 -43 9 -43 8 0 15 9 15 19 0 21 -13 34 -24 24z"/>
<path d="M7045 3560 c-3 -5 1 -10 10 -10 9 0 13 5 10 10 -3 6 -8 10 -10 10 -2
0 -7 -4 -10 -10z"/>
<path d="M7050 3530 c-13 -8 -12 -10 3 -10 9 0 17 5 17 10 0 12 -1 12 -20 0z"/>
<path d="M7215 3560 c-3 -5 1 -10 10 -10 9 0 13 5 10 10 -3 6 -8 10 -10 10 -2
0 -7 -4 -10 -10z"/>
<path d="M7570 3560 c0 -5 5 -10 11 -10 5 0 7 5 4 10 -3 6 -8 10 -11 10 -2 0
-4 -4 -4 -10z"/>
<path d="M7890 3560 c0 -5 5 -10 11 -10 5 0 7 5 4 10 -3 6 -8 10 -11 10 -2 0
-4 -4 -4 -10z"/>
<path d="M8016 3563 c-12 -12 -6 -43 9 -43 8 0 15 9 15 19 0 21 -13 34 -24 24z"/>
<path d="M8185 3560 c-3 -5 1 -10 10 -10 9 0 13 5 10 10 -3 6 -8 10 -10 10 -2
0 -7 -4 -10 -10z"/>
<path d="M735 3530 c-3 -5 1 -10 10 -10 9 0 13 5 10 10 -3 6 -8 10 -10 10 -2
0 -7 -4 -10 -10z"/>
<path d="M740 3500 c-13 -8 -12 -10 3 -10 9 0 17 5 17 10 0 12 -1 12 -20 0z"/>
<path d="M906 3533 c-12 -12 -6 -43 9 -43 8 0 15 9 15 19 0 21 -13 34 -24 24z"/>
<path d="M1185 3530 c-3 -5 1 -10 10 -10 9 0 13 5 10 10 -3 6 -8 10 -10 10 -2
0 -7 -4 -10 -10z"/>
<path d="M1405 3530 c-3 -5 1 -10 10 -10 9 0 13 5 10 10 -3 6 -8 10 -10 10 -2
0 -7 -4 -10 -10z"/>
<path d="M1555 3530 c-3 -5 1 -10 10 -10 9 0 13 5 10 10 -3 6 -8 10 -10 10 -2
0 -7 -4 -10 -10z"/>
<path d="M1555 3500 c-3 -5 -1 -10 4 -10 6 0 11 5 11 10 0 6 -2 10 -4 10 -3 0
-8 -4 -11 -10z"/>
<path d="M655 3530 c-3 -5 1 -10 10 -10 9 0 13 5 10 10 -3 6 -8 10 -10 10 -2
0 -7 -4 -10 -10z"/>
<path d="M7126 3383 c-12 -12 -6 -43 9 -43 8 0 15 9 15 19 0 21 -13 34 -24 24z"/>
<path d="M7582 3363 c5 -25 28 -28 28 -4 0 12 -6 21 -16 21 -9 0 -14 -7 -12
-17z"/>
<path d="M876 3353 c-12 -12 -6 -43 9 -43 8 0 15 9 15 19 0 21 -13 34 -24 24z"/>
<path d="M990 3330 c0 -11 7 -20 15 -20 8 0 15 9 15 20 0 11 -7 20 -15 20 -8
0 -15 -9 -15 -20z"/>
<path d="M6955 3380 c-3 -5 1 -10 9 -10 9 0 16 5 16 10 0 6 -4 10 -9 10 -6 0
-13 -4 -16 -10z"/>
<path d="M6965 3350 c-3 -5 -1 -10 4 -10 6 0 11 5 11 10 0 6 -2 10 -4 10 -3 0
-8 -4 -11 -10z"/>
<path d="M7456 3383 c-12 -12 -6 -43 9 -43 8 0 15 9 15 19 0 21 -13 34 -24 24z"/>
<path d="M4116 2865 c-20 -20 -21 -81 -2 -88 11 -5 14 -38 15 -163 1 -86 4
-161 7 -166 3 -4 42 -7 87 -6 l82 2 -70 3 c-76 4 -95 14 -95 49 0 22 4 24 55
24 l55 0 0 80 0 80 -54 0 -53 0 1 43 1 42 103 3 102 3 0 -31 c0 -16 5 -30 10
-30 6 0 10 14 10 30 0 18 6 33 15 36 9 4 15 19 15 38 0 58 -7 61 -143 64 -105
3 -127 1 -141 -13z m262 -42 l3 -33 -130 0 -131 0 0 28 c0 16 3 32 7 36 4 3
61 5 127 4 l121 -3 3 -32z m-148 -223 l0 -60 -44 0 -43 0 -2 60 -2 60 46 0 45
0 0 -60z"/>
<path d="M4356 2665 c-76 -58 -74 -170 5 -211 33 -17 92 -18 121 -3 16 9 24 7
44 -12 13 -12 26 -20 29 -17 3 3 -5 16 -18 28 -23 22 -24 26 -11 56 19 44 18
80 -3 115 -31 52 -124 77 -167 44z m138 -38 c57 -75 16 -168 -73 -169 -62 -1
-101 39 -101 103 0 40 4 51 31 73 23 19 42 26 74 26 38 0 47 -5 69 -33z"/>
<path d="M4384 2588 c-31 -34 -35 -58 -15 -82 29 -35 115 31 109 83 -2 21 -9
27 -33 29 -24 2 -37 -4 -61 -30z m76 -8 c0 -28 -15 -32 -34 -11 -17 18 -16 20
1 29 22 13 33 7 33 -18z m-30 -40 c0 -10 -20 -24 -35 -25 -17 -1 -24 18 -14
37 8 15 14 16 29 8 11 -6 20 -15 20 -20z"/>
<path d="M7295 3380 c-3 -5 1 -10 10 -10 9 0 13 5 10 10 -3 6 -8 10 -10 10 -2
0 -7 -4 -10 -10z"/>
<path d="M7675 3380 c-3 -5 1 -10 10 -10 9 0 13 5 10 10 -3 6 -8 10 -10 10 -2
0 -7 -4 -10 -10z"/>
<path d="M705 3350 c-3 -5 1 -10 10 -10 9 0 13 5 10 10 -3 6 -8 10 -10 10 -2
0 -7 -4 -10 -10z"/>
<path d="M710 3320 c-13 -8 -12 -10 3 -10 9 0 17 5 17 10 0 12 -1 12 -20 0z"/>
<path d="M1075 3350 c-3 -5 1 -10 10 -10 9 0 13 5 10 10 -3 6 -8 10 -10 10 -2
0 -7 -4 -10 -10z"/>
<path d="M1195 3350 c-3 -5 1 -10 10 -10 9 0 13 5 10 10 -3 6 -8 10 -10 10 -2
0 -7 -4 -10 -10z"/>
<path d="M1566 3353 c-12 -12 -6 -43 9 -43 8 0 15 9 15 19 0 21 -13 34 -24 24z"/>
<path d="M1356 3343 c-9 -22 10 -41 25 -26 13 13 5 43 -10 43 -5 0 -12 -8 -15
-17z"/>
<path d="M1235 3170 c-3 -5 -1 -10 4 -10 6 0 11 5 11 10 0 6 -2 10 -4 10 -3 0
-8 -4 -11 -10z"/>
<path d="M1397 3174 c-4 -4 -7 -16 -7 -26 0 -20 25 -25 36 -7 8 13 -19 43 -29
33z"/>
<path d="M1585 3170 c-3 -5 1 -10 10 -10 9 0 13 5 10 10 -3 6 -8 10 -10 10 -2
0 -7 -4 -10 -10z"/>
<path d="M1316 3173 c-12 -12 -6 -43 9 -43 8 0 15 9 15 19 0 21 -13 34 -24 24z"/>
<path d="M3820 1720 c0 -13 7 -20 18 -20 24 0 32 8 25 26 -8 22 -43 17 -43 -6z"/>
<path d="M4028 1693 c7 -3 16 -2 19 1 4 3 -2 6 -13 5 -11 0 -14 -3 -6 -6z"/>
<path d="M4462 1675 c2 -14 8 -26 13 -26 6 0 11 12 13 26 2 18 -1 25 -13 25
-12 0 -15 -7 -13 -25z"/>
<path d="M4690 1676 c0 -31 16 -42 28 -19 12 22 5 43 -14 43 -8 0 -14 -10 -14
-24z"/>
<path d="M3958 1453 c7 -3 16 -2 19 1 4 3 -2 6 -13 5 -11 0 -14 -3 -6 -6z"/>
<path d="M3956 1421 c-4 -7 -5 -15 -2 -18 9 -9 19 4 14 18 -4 11 -6 11 -12 0z"/>
<path d="M4170 1420 c-13 -8 -12 -10 3 -10 9 0 17 5 17 10 0 12 -1 12 -20 0z"/>
<path d="M4274 1445 c-7 -18 3 -35 22 -35 8 0 14 10 14 25 0 27 -27 35 -36 10z"/>
<path d="M4398 1453 c7 -3 16 -2 19 1 4 3 -2 6 -13 5 -11 0 -14 -3 -6 -6z"/>
<path d="M4678 1453 c7 -3 16 -2 19 1 4 3 -2 6 -13 5 -11 0 -14 -3 -6 -6z"/>
<path d="M4216 1133 c-12 -12 -6 -43 9 -43 8 0 15 9 15 19 0 21 -13 34 -24 24z"/>
<path d="M4530 1116 c0 -14 5 -28 10 -31 6 -4 10 7 10 24 0 17 -4 31 -10 31
-5 0 -10 -11 -10 -24z"/>
<path d="M4050 1130 c-13 -8 -12 -10 3 -10 9 0 17 5 17 10 0 12 -1 12 -20 0z"/>
<path d="M4055 1100 c-3 -5 -1 -10 4 -10 6 0 11 5 11 10 0 6 -2 10 -4 10 -3 0
-8 -4 -11 -10z"/>
<path d="M4335 1130 c-3 -5 1 -10 10 -10 9 0 13 5 10 10 -3 6 -8 10 -10 10 -2
0 -7 -4 -10 -10z"/>
<path d="M3885 950 c-3 -5 1 -10 10 -10 9 0 13 5 10 10 -3 6 -8 10 -10 10 -2
0 -7 -4 -10 -10z"/>
<path d="M3965 950 c-3 -5 1 -10 10 -10 9 0 13 5 10 10 -3 6 -8 10 -10 10 -2
0 -7 -4 -10 -10z"/>
<path d="M3965 920 c-3 -5 -1 -10 4 -10 6 0 11 5 11 10 0 6 -2 10 -4 10 -3 0
-8 -4 -11 -10z"/>
<path d="M4136 953 c-12 -12 -6 -43 9 -43 8 0 15 9 15 19 0 21 -13 34 -24 24z"/>
<path d="M4415 950 c-3 -5 1 -10 10 -10 9 0 13 5 10 10 -3 6 -8 10 -10 10 -2
0 -7 -4 -10 -10z"/>
<path d="M4785 920 c-3 -5 -1 -10 4 -10 6 0 11 5 11 10 0 6 -2 10 -4 10 -3 0
-8 -4 -11 -10z"/>
<path d="M3986 773 c-12 -12 -6 -43 9 -43 8 0 15 9 15 19 0 21 -13 34 -24 24z"/>
<path d="M4276 773 c-12 -12 -6 -43 9 -43 8 0 15 9 15 19 0 21 -13 34 -24 24z"/>
<path d="M4190 750 c0 -13 5 -20 13 -17 6 2 12 10 12 17 0 7 -6 15 -12 18 -8
2 -13 -5 -13 -18z"/>
<path d="M4355 770 c-3 -5 1 -10 10 -10 9 0 13 5 10 10 -3 6 -8 10 -10 10 -2
0 -7 -4 -10 -10z"/>
<path d="M4360 740 c-13 -8 -12 -10 3 -10 9 0 17 5 17 10 0 12 -1 12 -20 0z"/>
<path d="M3815 770 c-3 -5 1 -10 10 -10 9 0 13 5 10 10 -3 6 -8 10 -10 10 -2
0 -7 -4 -10 -10z"/>
<path d="M3820 740 c-13 -8 -12 -10 3 -10 9 0 17 5 17 10 0 12 -1 12 -20 0z"/>
<path d="M4606 773 c-12 -12 -6 -43 9 -43 8 0 15 9 15 19 0 21 -13 34 -24 24z"/>
<path d="M4731 770 c-17 -10 -7 -40 14 -40 8 0 15 9 15 19 0 24 -12 32 -29 21z"/>
<path d="M4346 593 c-12 -12 -6 -43 9 -43 8 0 15 9 15 19 0 21 -13 34 -24 24z"/>
<path d="M4025 590 c-3 -5 -1 -10 4 -10 6 0 11 5 11 10 0 6 -2 10 -4 10 -3 0
-8 -4 -11 -10z"/>
<path d="M4100 590 c0 -5 5 -10 11 -10 5 0 7 5 4 10 -3 6 -8 10 -11 10 -2 0
-4 -4 -4 -10z"/>
<path d="M4070 572 c0 -6 -12 -12 -27 -15 -16 -2 -3 -3 27 -3 30 0 48 2 40 4
-8 3 -21 9 -27 15 -9 6 -13 6 -13 -1z"/>
<path d="M4516 593 c-12 -12 -6 -43 9 -43 8 0 15 9 15 19 0 21 -13 34 -24 24z"/>
<path d="M4680 590 c0 -5 5 -10 11 -10 5 0 7 5 4 10 -3 6 -8 10 -11 10 -2 0
-4 -4 -4 -10z"/>
<path d="M3886 593 c-12 -12 -6 -43 9 -43 8 0 15 9 15 19 0 21 -13 34 -24 24z"/>
</g>
</svg>
